<?xml version="1.0" standalone="no"?>
<!DOCTYPE svg PUBLIC "-//W3C//DTD SVG 1.1//EN" "http://www.w3.org/Graphics/SVG/1.1/DTD/svg11.dtd" >
<svg xmlns="http://www.w3.org/2000/svg">
<metadata></metadata>
<defs>
<font id="pf_playskool_proregular" horiz-adv-x="700" >
<font-face units-per-em="2048" ascent="1536" descent="-512" />
<missing-glyph horiz-adv-x="450" />
<glyph horiz-adv-x="2048" />
<glyph horiz-adv-x="2048" />
<glyph unicode="&#xd;" horiz-adv-x="450" />
<glyph unicode=" "  horiz-adv-x="450" />
<glyph unicode="&#x09;" horiz-adv-x="450" />
<glyph unicode="&#xa0;" horiz-adv-x="450" />
<glyph unicode="!" horiz-adv-x="567" d="M150 25q0 20 7 35.5t13 25.5q8 10 24.5 21.5t38.5 11.5q82 0 82 -84q0 -20 -8 -39t-16 -31q-8 -14 -24.5 -23.5t-39.5 -9.5q-45 0 -63.5 26t-13.5 67zM203 276l28 725q25 20 51.5 25.5t52 1.5t47 -12t38.5 -15l-133 -811q-29 -23 -45.5 -28.5t-22.5 -3.5q-4 2 -11 22.5 t-5 95.5z" />
<glyph unicode="&#x22;" horiz-adv-x="339" d="M28 1103q-1 42 2 81t6 67.5t1 34.5h121l-64 -272q-10 -8 -28.5 -5t-24.5 19q-12 33 -13 75zM175 1103q-1 42 2 81t6 67.5t1 34.5h121l-63 -272q-10 -8 -28.5 -5t-25.5 19q-12 33 -13 75z" />
<glyph unicode="#" horiz-adv-x="997" d="M119 375q0 18 2 34.5t2 18.5l4 12l113 6l18 205q-47 -4 -80 -5t-43 -1q-10 4 -8 20.5t8 34.5q8 23 21 48h110l19 192q25 18 49 23.5t48 2.5t44 -11.5t37 -14.5l-39 -192h227l43 180q33 18 58.5 15t56.5 -15l-31 -180h160l-4 -52l-168 -12l-37 -213l111 6q31 -12 41 -35 q2 -4 3 -17t0 -27.5t-5.5 -27t-12.5 -16.5q-4 -2 -29.5 -3t-54.5 -1h-51q-23 0 -65 -239q-29 -6 -52 -13q-20 -4 -38.5 -8t-24.5 -2q-29 6 -35 27q-4 25 45 235q-43 0 -91 1t-108 3h-18l-47 -223q-16 -12 -31 -20q-12 -6 -22.5 -10.5t-14.5 1.5q-2 6 -4 23.5t-3 36t-2 34.5 l-1 15l12 145h-108q-4 0 -4 19zM362 453l224 12l49 211l-164 -12q-10 -2 -18.5 -2h-16.5q-20 0 -30 -3z" />
<glyph unicode="$" horiz-adv-x="845" d="M77.5 149q2.5 39 18.5 66q10 16 26.5 29.5t32 22.5t29 13.5t19.5 2.5q16 -6 44.5 -15.5t62.5 -16.5t70 -10t71 3q76 16 103.5 56t25.5 87q0 43 -42 77t-100.5 63.5t-119 59t-97.5 62.5q-23 18 -38 49t-23 66t-5 70.5t19 68.5q25 51 70 78t100 39l4 121l113 6l22 -113 q35 -2 94.5 -10t137.5 -33q-29 -51 -50.5 -87t-25.5 -36q-10 2 -43 6.5t-74 3.5t-83 -9.5t-66 -28.5q-23 -18 -21 -52t31 -63q14 -14 49 -27.5t80 -32t97.5 -45t101.5 -67.5q14 -12 30.5 -35.5t29.5 -55.5t20.5 -69t1.5 -74q-16 -86 -76 -145t-182 -90l6 -184 q-49 -23 -80 -21q-33 2 -39 3t-16 20q-12 29 -22.5 76t-16.5 88q-92 0 -164 13t-101 23q-27 8 -24.5 47z" />
<glyph unicode="%" horiz-adv-x="937" d="M88 784q-23 139 66 224q33 33 102 39q45 4 90 -16.5t70 -65.5q49 -78 33 -191q-2 -23 -13.5 -50.5t-31 -52t-46 -43t-59.5 -20.5q-47 -2 -84 11.5t-63.5 38t-42 57.5t-21.5 69zM166 838q-2 -45 20.5 -77t42.5 -40q39 -14 78 2q16 8 38 42t9 93q-6 41 -19 58.5t-28 25.5 q-29 18 -74 6q-29 -10 -42 -28.5t-19 -36t-6 -31.5v-14zM236 23l372 1046l70 -16l-311 -1057q-41 -16 -75 -1t-56 28zM510 184q-20 143 65 222q31 31 103 40q45 4 90 -16t70 -65q45 -76 32 -191q-2 -23 -13 -50.5t-30.5 -52t-46 -43t-59.5 -20.5q-96 -4 -147.5 49.5 t-63.5 126.5zM575 233q-4 -45 19.5 -76.5t44.5 -39.5q39 -14 78 2q16 8 37.5 42t9.5 93q-6 41 -19.5 58.5t-27.5 25.5q-12 8 -32.5 10t-41.5 -4q-29 -10 -42 -28.5t-19.5 -36t-6.5 -31.5v-15z" />
<glyph unicode="&#x26;" horiz-adv-x="845" d="M109 240q-29 98 12 181t139 138q-27 33 -48.5 73t-35.5 89q-14 51 -10 100t23.5 91t53 72t76.5 42q90 25 167 -26.5t106 -155.5q14 -51 6 -96.5t-30.5 -85t-58.5 -72.5t-77 -60h-2v-2q35 -41 92.5 -101t126.5 -120q16 10 34.5 17.5t35.5 13.5q43 16 53 14t4 -20 q-4 -16 -20.5 -37t-40.5 -47q43 -37 68.5 -59.5t45 -37t40 -26t53.5 -27.5q8 -4 -4.5 -27.5t-40.5 -27.5q-31 -8 -62 -4t-53 14q-27 10 -51 27q-25 16 -46.5 33.5t-50.5 46.5q-113 -88 -225 -111q-92 -12 -172 37t-108 154zM248 326q2 -31 15 -52.5t32.5 -36t42 -20.5 t45.5 -6q18 0 42 7t42 15q20 8 33.5 16.5t-8.5 29.5q-20 20 -54.5 56t-56.5 62q-49 55 -49 56q-31 -23 -59.5 -50.5t-24.5 -76.5zM299 721q4 -14 18.5 -41t44.5 -68l31 23q31 23 57.5 59.5t16.5 83.5t-38.5 66.5t-63.5 11.5q-35 -6 -55.5 -45t-10.5 -86v-4z" />
<glyph unicode="'" horiz-adv-x="319" d="M157 1103q-1 42 2 81t6 67.5t1 34.5h121l-64 -272q-10 -8 -28.5 -5t-24.5 19q-12 33 -13 75z" />
<glyph unicode="(" horiz-adv-x="452" d="M117 618q0 88 8 146.5t26.5 108t48 99.5t72.5 122l90 49q-20 -57 -36.5 -106.5t-28.5 -90.5q-25 -86 -45.5 -182t-20.5 -178q0 -51 9.5 -110.5t24 -121t30.5 -119t30.5 -101.5t24.5 -72l10 -27l-20 2q-70 100 -113 180t-67.5 148.5t-33.5 130t-9 122.5z" />
<glyph unicode=")" horiz-adv-x="512" d="M133 1182h25q43 -4 86 -36t77.5 -94.5t56 -155.5t21.5 -218q0 -78 -15 -168t-44 -179t-68 -171t-88 -140q-49 -23 -26 41q10 31 22.5 69t24.5 83q27 92 48 193.5t21 181.5q0 88 -22.5 191.5t-48.5 193.5q-31 104 -70 209z" />
<glyph unicode="*" horiz-adv-x="534" d="M94 918l58 83l106 -100q-4 23 -13 65t-5 83q29 4 52 1t30 -3q-4 -39 -8.5 -77t-8.5 -61q-4 -4 28 19.5t85 58.5l31 -61q-16 -8 -44 -27.5t-75 -32.5l116 -71q-8 -16 -22 -38t-43 -36q-8 12 -12 17t-11.5 14.5t-19.5 27t-35 54.5l19 -164q-23 -8 -48.5 -6t-44.5 6l25 159 l-92 -108q-14 16 -27.5 35.5t-19.5 31.5q8 6 23.5 19.5t31.5 28t31.5 24.5t23.5 14q-31 4 -65.5 14.5t-65.5 29.5zM322 1047q2 0 0 2v-2z" />
<glyph unicode="+" horiz-adv-x="819" d="M190 526l13 72l155 14l-18 193q29 16 43 16q8 0 18.5 1t22.5 3q25 2 47.5 -9t32.5 -21l-23 -177l140 11q8 -4 23 -10.5t15 -45.5q-8 -41 -14 -58t-8 -28l-170 13l-10 -197h-74l-18 207q2 0 -46.5 5t-128.5 11z" />
<glyph unicode="," horiz-adv-x="278" d="M45 33.5q-4 25.5 0 42.5q18 59 94 59q29 0 49.5 -20.5t20.5 -67.5q0 -27 -16 -70l-64 -118q-43 -8 -56.5 4t-12.5 32.5t9.5 44t8.5 35.5q-29 33 -33 58.5z" />
<glyph unicode="-" d="M94 487v78l512 27l4 -129q-57 -2 -129.5 -1t-144.5 5t-136.5 9t-105.5 11z" />
<glyph unicode="." horiz-adv-x="483" d="M102 59q0 53 48.5 89t117.5 36q68 0 116 -36t48 -89q0 -51 -48 -86.5t-116 -35.5q-70 0 -118 35.5t-48 86.5z" />
<glyph unicode="/" horiz-adv-x="571" d="M16 -139l461 1313h58l-342 -1313h-177z" />
<glyph unicode="0" horiz-adv-x="784" d="M86 498q-37 299 111 465q25 23 51 43q23 16 54.5 29.5t68.5 8.5q78 10 154.5 -33t119.5 -137q35 -78 51.5 -180t3.5 -219q-4 -47 -22.5 -105.5t-51 -110.5t-77.5 -90t-103 -42q-80 -6 -143 23.5t-107 82t-72 122t-38 143.5zM268 600q-2 -45 8.5 -86t26.5 -73.5t35.5 -54 t38.5 -30.5q33 -16 69.5 -15t63.5 19q14 8 31.5 31t31 57.5t19.5 84t-2 112.5q-12 82 -35 120t-47 54q-23 16 -56.5 21.5t-68.5 -9.5q-37 -18 -61 -49q-23 -27 -40.5 -71.5t-13.5 -110.5z" />
<glyph unicode="1" horiz-adv-x="712" d="M84 723l268 219l172 37l-63 -639q74 4 113.5 2t58 -7t22.5 -11l4 -7q2 -14 4.5 -34.5t-5 -39t-26 -31.5t-57.5 -13q-115 -4 -223 -15.5t-213 -31.5q-25 29 -27.5 50t1.5 36q6 16 20 24q90 39 178 53l13 412q-80 -47 -120 -55t-42 -8q2 0 -6.5 1t-20.5 6t-26.5 17 t-24.5 35z" />
<glyph unicode="2" horiz-adv-x="782" d="M86 881q-6 35 18.5 88t77.5 92q16 12 37 25.5t48.5 23.5t65.5 14t91 -2q213 -29 258 -237q12 -68 -9.5 -139.5t-56.5 -120.5q-12 -16 -33.5 -42t-46 -53.5t-49 -56.5t-45.5 -53q-12 -16 -30.5 -44t-31.5 -57.5t-20.5 -55t2.5 -34.5q6 -6 31 -6q35 0 94.5 5t112.5 5 q35 0 59.5 -4t30.5 -14q4 -8 6 -23.5t2 -33.5q0 -39 -16 -66q-55 -4 -114.5 -7t-125.5 -7q-29 -2 -63.5 -4t-70.5 -4t-69.5 -3t-56.5 -1q-29 0 -32 4q-14 25 -13.5 65.5t16 90.5t46 102.5t73.5 97.5l53.5 53.5t60.5 60t51.5 53t25.5 30.5q23 29 38 67.5t13 79.5 q-2 76 -38 114t-99 42q-49 4 -86 -11.5t-62.5 -35t-43 -38t-29.5 -20.5q-23 -6 -44.5 12.5t-25.5 47.5z" />
<glyph unicode="3" horiz-adv-x="741" d="M66 209q100 23 167.5 47.5t110.5 50t69.5 55t45.5 62.5q18 63 -2.5 102t-40.5 47q-18 8 -62.5 24.5t-113.5 25.5l110 239q-47 4 -86 11.5t-74 17.5q-20 10 -34 27q-12 14 -19.5 35.5t0.5 52.5h23h53t93.5 -2.5t143.5 -4.5t199 -4l-237 -295q66 2 157 -28q31 -14 51.5 -37 t33 -45.5t17.5 -44t5 -33.5q0 -55 -13.5 -99t-36 -77t-48 -56.5t-50.5 -37.5q-23 -16 -60.5 -38t-90.5 -43.5t-121 -38t-147 -20.5z" />
<glyph unicode="4" horiz-adv-x="847" d="M77 516q1 14 15 57q10 33 34 87.5t64.5 134t103 190.5t150.5 256l33 -53q6 -10 11.5 -15.5t6.5 -11.5t-1 -17t-9 -34q-8 -31 -22 -74t-30.5 -86t-33 -82t-28.5 -63l-86 -191q27 4 51 6.5t47 4.5q45 2 111 346l108 -29l-35 -309l19 -1q20 -1 50 -4t67.5 -8.5t78.5 -13.5 q16 -4 24.5 -16t12.5 -29q4 -18 4 -39q0 -12 -7 -39.5t-19 -27.5q-66 0 -127.5 2t-122.5 2l-37 -328l-14 -84q-10 -10 -25.5 -14t-30 -4t-24.5 2l-10 2q-18 6 -35 14q-14 8 -26.5 19.5t-16.5 31.5l67 361h-293q-12 0 -20 20q-6 23 -5 37z" />
<glyph unicode="5" horiz-adv-x="776" d="M74 931.5q8 26.5 10 31.5q2 4 31.5 12t72.5 14q45 6 95.5 11.5t95.5 10.5t77.5 7t41.5 2q12 0 15 -9.5t1 -20.5t-6 -22.5t-6 -13.5q-2 -4 -17.5 -10t-37 -12t-46 -13.5t-43.5 -13.5l-145 -43q18 -78 26.5 -120t12.5 -58q25 8 64.5 16.5t86 10.5t93.5 -8.5t84 -40.5 q47 -39 72.5 -87.5t36.5 -95.5t13.5 -86t2.5 -59t-2.5 -51t-10.5 -65t-26.5 -70.5t-51.5 -69.5q-41 -41 -87 -60.5t-76 -23.5q-16 -2 -43 -3t-58 6t-65.5 23.5t-65.5 51.5q-23 25 -39 49q-14 23 -23.5 49.5t-4.5 50.5l67 21q31 -33 60.5 -51.5t54 -27.5t40.5 -13l15 -3 q68 -10 108 16.5t62 65.5q23 41 23 105q0 66 -31 112q-29 43 -78 69t-108 24q-35 -2 -72 -9q-33 -4 -75 -15t-89 -30l-53 373q-10 47 -2 73.5zM225 674l4 2q-2 0 -4 -2z" />
<glyph unicode="6" horiz-adv-x="681" d="M79 458q3 77 25.5 166t79.5 179q45 72 123 131t176 70q29 4 54 4q23 0 42 -2t29 -11q25 -31 19 -43t-13 -16q-2 -2 -15 -6t-31.5 -9.5t-40.5 -13.5t-40 -16q-66 -31 -107.5 -64.5t-65 -62.5t-32.5 -48l-10 -20q45 14 80 19q57 0 111.5 -37t81.5 -109q23 -59 28 -137 t-12 -164q-6 -35 -24.5 -76.5t-46 -78.5t-63.5 -61.5t-79 -24.5q-92 2 -157.5 61t-86.5 139q-8 33 -18 93.5t-7 137.5zM248 391q-8 -70 15.5 -121t47.5 -67q25 -14 51.5 -16.5t49.5 10.5q12 6 26.5 20t26.5 40t19.5 61.5t4.5 84.5q-4 72 -18 96.5t-31 37.5q-35 30 -94 18 q-23 -8 -43 -29q-16 -16 -32.5 -49t-22.5 -86z" />
<glyph unicode="7" horiz-adv-x="714" d="M70 834.5q-2 25.5 0 101.5q51 6 108.5 12t91.5 8q16 2 25.5 3.5t11.5 1.5h9.5t23.5 2q20 2 55 3t76 3t87 2t93 -2q-29 -84 -47 -140.5t-30.5 -92.5t-18.5 -54t-8 -27q-2 -8 -9.5 -29.5t-29.5 -82.5h147l-39 -133q6 0 -33.5 1t-109.5 7q0 -4 -17.5 -53.5t-39 -113 t-43 -122.5t-29.5 -82q-2 -4 -16.5 -15.5t-28.5 -11.5q-23 0 -29 6.5t-6 22.5q0 8 3 30.5t11.5 64.5t23.5 110t40 170q-10 0 -39 2t-35 2q-6 2 -26.5 4t-57.5 6l9 105q72 0 110.5 1t50.5 1q6 0 11.5 4t11.5 25.5t17.5 68.5t29.5 133q-98 8 -162.5 13.5t-103.5 9.5t-57.5 6 t-24.5 2q-4 2 -6 27.5z" />
<glyph unicode="8" horiz-adv-x="684" d="M84 229q0 63 22 129l10 22q11 23 32.5 58t56.5 74t84 72q-31 41 -59.5 100t-28.5 135q4 72 25.5 121t54 79t71.5 43t78 13q27 0 57.5 -10t57 -32.5t43 -61.5t16.5 -94q0 -88 -38 -165t-111 -122l13 -16q13 -15 30.5 -34.5t35 -41t25.5 -35.5q12 -25 27.5 -58.5 t15.5 -87.5q0 -72 -24.5 -130t-65.5 -100t-93 -65.5t-110 -23.5q-39 0 -79 14.5t-72.5 43t-53 71.5t-20.5 102zM238 305q0 -14 3 -32.5t13 -35t27.5 -27.5t46.5 -11q47 0 86 35.5t39 101.5q0 47 -32 91t-65 79q-25 -20 -45 -46t-35 -48q-16 -27 -28 -56q-10 -25 -10 -51z M350 784q0 -33 14.5 -63.5t32.5 -58.5q23 20 35.5 36.5t18.5 26.5q8 10 18 40t10 58q0 41 -16.5 62.5t-40.5 21.5q-23 0 -47.5 -28.5t-24.5 -94.5z" />
<glyph unicode="9" horiz-adv-x="686" d="M6 283l96 129q12 -18 36 -35t52.5 -26t59.5 -10t61 7q31 8 57.5 38t43.5 65q20 47 29.5 78.5t15.5 58.5q-12 -4 -35 -7t-51 3q-23 4 -51.5 17t-55 41t-45 71t-20.5 106t8 108.5t25.5 76t34 50t30.5 29.5q37 29 70.5 32t62.5 -1q14 -2 32.5 -8t38 -20.5t37 -38t29.5 -60.5 q25 -86 24 -153.5t-9 -135.5q-8 -80 -30 -163.5t-56.5 -156.5t-84 -125t-110.5 -69q-35 -8 -76 -6t-82 14.5t-76.5 35t-60.5 55.5zM334 821q0 -18 3 -44.5t11 -51.5t24.5 -40t43.5 -13q27 4 44 28.5t26.5 57.5t10.5 68.5t-5 62.5q-10 45 -28 61.5t-34 18.5q-27 2 -53 -17 q-27 -18 -35 -57t-8 -74z" />
<glyph unicode=":" horiz-adv-x="481" d="M119 190q0 47 19.5 77t80.5 30t85 -28.5t24 -75.5t-21.5 -78t-83.5 -31q-61 0 -82.5 29.5t-21.5 76.5zM156 596q0 47 19.5 76.5t80.5 29.5t85 -28.5t24 -75.5t-21.5 -78t-83.5 -31q-61 0 -82.5 30t-21.5 77z" />
<glyph unicode=";" horiz-adv-x="481" d="M119 182q0 47 19.5 77t80.5 30t85 -29t24 -76q0 -25 -6 -45q-8 -25 -21.5 -55.5t-32 -60t-44 -55t-58.5 -40.5q-6 -2 2 19.5t17.5 49.5t15.5 52.5t-2 26.5q-33 14 -56.5 36.5t-23.5 69.5zM156 588q0 47 19.5 76.5t80.5 29.5t85 -28.5t24 -75.5t-21.5 -78t-83.5 -31 q-61 0 -82.5 30t-21.5 77z" />
<glyph unicode="&#x3c;" horiz-adv-x="524" d="M78 457q29 47 62.5 98t70.5 103.5t74 101.5t69 90l62 -78q-84 -152 -157 -227.5t-95 -87.5q47 -49 112.5 -120t137.5 -181l-66 -76q-33 31 -70.5 79t-74.5 101t-70 105.5t-55 91.5z" />
<glyph unicode="=" horiz-adv-x="1036" d="M272 518v62l529 26l4 -106q-29 -2 -62.5 -2h-72.5q-111 0 -221.5 5t-176.5 15zM274 297l5 104q74 4 150.5 3t146 -4t129 -9t100.5 -12v-64z" />
<glyph unicode="&#x3e;" horiz-adv-x="524" d="M78 156q72 111 137.5 181.5t112.5 119.5q-23 12 -95.5 88t-154.5 227l59 78q33 -41 70 -90t73.5 -100.5t71.5 -103.5t64 -99q-23 -39 -55.5 -91.5t-70.5 -105.5t-76 -101t-71 -79z" />
<glyph unicode="?" horiz-adv-x="647" d="M92 868l43 168q25 10 52.5 19.5t56.5 13.5q4 0 44 2t88 -14.5t91 -61.5t55 -139q10 -74 0 -129t-30.5 -98t-47 -77t-49.5 -65q-49 -80 -74.5 -147.5t-9.5 -144.5l-78 28q-18 39 -18 78q0 41 5 63.5t7 26.5q8 20 14.5 36.5t14.5 35t19.5 41t29.5 57.5q14 29 24.5 67 t12.5 76.5t-4 74.5t-23 61q-12 20 -35.5 32.5t-54 16.5t-65.5 -1t-68 -20zM193 59q0 43 17 70t73 27q55 0 76.5 -27t21.5 -68q0 -43 -19.5 -69.5t-74.5 -26.5q-57 0 -75.5 25.5t-18.5 68.5z" />
<glyph unicode="@" horiz-adv-x="985" d="M75 317q-9 109 36 213q43 90 94 133.5t84 63.5q20 14 73.5 30.5t108.5 20.5q57 4 111.5 -4t97.5 -33q72 -39 125 -91t88 -148q18 -47 22.5 -103.5t-4 -109.5t-29 -96t-51.5 -66q-10 -6 -40.5 -18.5t-75.5 6.5l-11 5q-10 5 -23 14t-27.5 23.5t-22.5 32.5q-2 4 -12.5 -14 t-49.5 -35q-35 -12 -83 -10t-80 19q-51 27 -81 79t-26 123q2 72 43 114t100 62q47 10 74 2q33 -8 27 76q70 16 104 8q2 -35 1 -89t14 -146q18 -100 44.5 -139t51 -45.5t42 5t17.5 9.5q12 10 26.5 48t15.5 93.5t-18.5 121t-74.5 130.5q-37 43 -72 66.5t-68.5 35t-65.5 12.5 t-60 -1q-94 -8 -161 -55.5t-102.5 -116t-37.5 -150.5t30 -160q25 -57 68 -95t92 -60.5t98.5 -29.5t83.5 -1q45 8 93 31l4 -31q-45 -55 -114 -71.5t-141.5 -4t-138 47t-104.5 83.5q-86 106 -95 215zM391 289q8 -37 39 -56.5t74 -11.5t67.5 41t16.5 72t-43 61.5t-78 12.5 q-41 -8 -62.5 -44t-13.5 -75z" />
<glyph unicode="A" horiz-adv-x="995" d="M78 176q76 156 129 262.5t87 176t51 106.5t24 53q10 18 11 19.5t11 23.5q10 23 45 90.5t90 184.5l211 -7l162 -1024l-115 -16h-7t-9 27q-10 31 -24.5 86t-26.5 110.5t-21.5 97.5t-9.5 48q-18 10 -71.5 23.5t-165.5 35.5q-14 2 -22.5 3t-12.5 1h-8l-19 -31 q-10 -16 -21.5 -36.5t-25.5 -42.5q-27 -47 -58.5 -101.5t-59 -101.5t-46 -79t-20.5 -34q-4 -4 -24.5 15.5t-33.5 35.5q-8 16 -13 35t-7 39zM461 616l188 -51q-14 102 -24.5 157.5t-17.5 80t-10 29t-5 4.5l-7 -4q-7 -5 -23.5 -26.5t-41 -65.5t-59.5 -124z" />
<glyph unicode="B" horiz-adv-x="870" d="M82 80l108 1059q49 4 92 4q37 0 69 -3q69 -7 118 -20.5t80 -32t43 -32.5q29 -23 52.5 -75t25.5 -116q0 -37 -9.5 -67.5t-17.5 -53.5q-8 -20 -22.5 -36.5t-27.5 -28.5t-18 -16l-14 -9q27 -2 64 -28.5t71 -70.5q32 -44 54 -102q17 -45 17 -94q0 -14 -1 -28 q-4 -51 -29.5 -102.5t-66.5 -94.5t-94.5 -73.5t-114.5 -41.5q-41 -2 -81 -2t-84 6.5t-96.5 19.5t-117.5 38zM264 240q49 -6 84 -8.5t58 -2.5q24 0 40 2q35 6 58.5 23.5t39 40t21.5 46.5t6 42q0 45 -22.5 83t-79.5 66q-37 10 -81 19.5t-95 13.5zM301 729q16 2 26.5 2h18.5h25 q10 0 14 2t12 4q27 12 56.5 45t33.5 90q1 8 1 16q0 32 -13 59q-16 34 -39 52q-55 27 -114 29z" />
<glyph unicode="C" horiz-adv-x="813" d="M39 565q2 68 18.5 125.5t42 105.5t58 83.5t67.5 60.5q35 20 67 34.5t60 22.5q59 15 140 17h6q78 0 170 -35q6 -29 8 -48.5t2 -33.5q0 -17 -2 -27q-8 -35 -18.5 -52t-39.5 -46q-12 4 -34.5 7t-44.5 5q-27 2 -58 4q-19 2 -36 2q-57 0 -101 -24q-57 -32 -94 -90 q-41 -63 -41 -152q0 -39 8 -75.5t23 -61.5q14 -25 36.5 -50.5t50 -44t62.5 -24.5q12 -2 24 -2q25 0 54 8q33 10 63 31q27 16 54.5 45t48.5 74l151 -51q0 -29 -13 -58.5t-31.5 -57.5t-37 -50.5t-30.5 -36.5q-14 -18 -52 -42t-79 -36q-39 -12 -76 -15q-22 -2 -42 -2 q-13 0 -26 1q-41 4 -109.5 28.5t-121.5 77.5q-43 43 -68.5 98.5t-40 109.5t-17.5 102q-2 28 -2 49q0 14 1 24z" />
<glyph unicode="D" horiz-adv-x="798" d="M88 45l66 954h23q57 0 106 -8q59 -10 107 -23.5t84 -28.5t54 -24q27 -10 61 -37.5t54 -58.5q23 -29 35 -56t18 -50t14 -81q3 -24 3 -51q-1 -37 -7 -81q-10 -76 -45.5 -158t-115.5 -154q-66 -49 -125 -77q-59 -29 -143 -51q-66 -17 -144 -16q-22 0 -45 1zM270 233 q14 -2 28 -2q32 1 61 13q42 18 73 43q37 28 68 69q31 43 43 84t14 76q1 10 1 19q0 23 -4 41q-5 24 -9 34l-13 18q-12 19 -39.5 40.5t-73.5 37.5q-41 14 -100 13h-16v-4z" />
<glyph unicode="E" horiz-adv-x="940" d="M61 545l127 26q-8 68 -16 129.5t-14 109.5t-9.5 78t-3.5 34q47 18 93.5 32.5t83 23.5t58.5 13l21 4q66 10 133.5 16.5t165.5 10.5q14 -47 14.5 -74.5t-3.5 -41t-11 -16.5l-8 -3q-84 -14 -163.5 -31.5t-190.5 -46.5l20 -197q57 12 89 18.5t60 10.5t60.5 7t94.5 14l6 -162 q-35 -6 -57.5 -13.5t-51.5 -15.5t-71 -18.5t-113 -22.5l18 -211l123 4q23 2 36 3t17 1l45 9q25 4 53.5 10t56.5 12t50.5 12.5t36.5 10.5q2 -10 5 -38t7 -87q-12 -16 -58 -34t-97 -32q-41 -8 -71 -16t-72 -16.5t-104.5 -16.5t-166.5 -16l-31 254l-10 86q-2 22 -52 22 q-30 0 -77 -8z" />
<glyph unicode="F" horiz-adv-x="755" d="M0 608l168 -10q2 51 3 82t2 47t1 24.5v18.5l14 252q61 12 121 17t107 5q31 1 55 1h21q30 -1 59 -3q18 -2 50 -5t68 -9t72.5 -14t69.5 -19q-12 -76 -15 -110.5t-5.5 -45t-5.5 -7t-17 1.5q-27 6 -84 10q-23 2 -47 2q-37 0 -78 -4q-33 0 -70 -2q-31 -2 -66.5 -5.5 t-70.5 -9.5q-10 -86 -13 -133t-5 -69q-2 -27 0 -31l9 -1t36 -2t75 -4t128 -7l-13 -148q-41 2 -71.5 2h-48.5h-84q-39 0 -50 2q-14 -137 -24 -220t-19 -128q-6 -43 -9 -56.5t-9 -25.5q-4 -12 -26 -15q-13 -2 -23 -2q-7 0 -12 1q-14 2 -38 13t-22 40l5 107.5t6 127t5.5 108.5 t2.5 52h-29q-18 0 -42 1t-44.5 2t-31.5 2l-6 1h3z" />
<glyph unicode="G" horiz-adv-x="839" d="M53 391q-5 39 -5 76q0 45 7 86q8 55 24.5 113.5t44.5 114t66.5 103.5t92.5 85q33 23 67 39q29 14 66 25q31 9 60 9h11q16 -16 13 -53q-4 -12 -19.5 -29.5t-35 -37t-43 -41t-44.5 -43.5q-20 -23 -47.5 -55.5t-52.5 -76.5t-40 -100q-13 -48 -13 -109v-16q2 -68 20.5 -112.5 t43 -72.5t51 -41t42.5 -17q15 -3 31 -3q22 0 45 5q41 8 64 22q20 14 39 35q14 16 26.5 37.5t7.5 46.5l-102 -29q-29 -8 -49.5 -6t-32.5 8q-16 6 -24 17q-8 10 -17 26q-6 14 -9 33t1 43q29 18 62.5 33.5t64.5 25.5q37 12 72 21l19 4q20 4 47.5 9t60 8.5t59.5 0.5l70 -557 l-92 -6l-76 172q-23 -76 -70 -108q-47 -35 -96 -46q-29 -6 -69 -6q-26 0 -56 3q-88 14 -147.5 70.5t-93.5 132t-44 161.5z" />
<glyph unicode="H" horiz-adv-x="811" d="M102 1104q72 -6 112 -16.5t58.5 -20.5t22.5 -17l4 -6q0 -2 1 -20t1 -90q0 -35 -1 -84t-3 -115l205 -43l14 414q41 -4 67.5 -5t48 -5t42 -13.5t51.5 -25.5l-33 -1022q-12 -6 -33.5 -8t-35.5 -2h-15q-20 2 -40.5 8t-37 13t-26.5 14.5t-10 11.5v55q0 41 2 126t4 239l-213 49 l-11 -482l-129 58z" />
<glyph unicode="I" horiz-adv-x="724" d="M96 147q0 6 2 37t8 95q80 -2 122 -3.5t67 -3.5l55 519q-51 8 -81.5 12t-46 7t-20.5 4t-5 5q0 6 2 34t6 87h231q86 0 127 -1t51 -1h11q16 -2 22 -28q5 -19 5 -36q0 -6 -1 -12q-4 -41 -15 -60.5t-20 -23.5q-6 -2 -30 -6q-7 -1 -15 -1q-22 0 -57 7q-23 -135 -37 -226 t-23.5 -148.5t-14.5 -86t-7 -41.5q-2 -10 18.5 -13t48 -5t55.5 -4t42 -6q12 -2 20 -32q4 -18 4 -37q0 -13 -2 -27l-1 -14q-1 -13 -6 -28.5t-12 -27.5q-6 -10 -16 -10h-3q-172 23 -268.5 37t-144.5 22t-59.5 11t-11.5 5z" />
<glyph unicode="J" horiz-adv-x="790" d="M-121 -2q6 41 27.5 87t70.5 62q31 -49 69 -76.5t75 -42t70.5 -17.5t54.5 1q33 4 61.5 29t65.5 96q37 74 70.5 208t41.5 355l-305 35q12 47 14.5 74t3.5 39t7 14t24 2q29 4 113 6l172 9q86 6 150 7h23q42 0 48 -3q31 -16 35 -82q-4 -29 -9 -57.5t-13 -57.5l-117 4 q-4 -25 -8.5 -81t-10.5 -129.5t-17 -158.5t-28.5 -164t-44 -146.5t-63.5 -106.5q-45 -49 -123 -83q-53 -23 -115 -23q-30 0 -61 5q-92 25 -162 65t-119 130z" />
<glyph unicode="K" horiz-adv-x="962" d="M113 1061q47 18 70.5 26.5t35.5 10.5q6 1 11 1q4 0 8 -1q8 -2 22 -2q33 -4 60.5 -9.5t27.5 -13.5v-53v-76t2 -83t5 -68.5t7 -32.5q12 -10 23.5 -3t17.5 13q8 10 23.5 28.5t44.5 53.5t75 92t118 148q76 -53 108.5 -81t34.5 -36q4 -8 0 -13.5t-31 -33.5l-79 -79t-91 -94 t-72.5 -82t-23.5 -46q12 -18 34.5 -45t62.5 -72t104.5 -116.5t162.5 -178.5q0 -10 -7 -23.5t-17 -23.5q-10 -12 -23 -25q-18 -16 -38.5 -27.5t-39 -18.5t-31.5 -9t-18 2q-12 14 -31.5 38t-58.5 71t-100 122.5t-158 194.5l19 -436q-6 -6 -18.5 -10t-22.5 -7q-14 -2 -29 -2 q-66 6 -94 23z" />
<glyph unicode="L" horiz-adv-x="804" d="M63 977q31 20 87 35q8 1 15 1t13 -1q10 -2 21.5 -6.5t15.5 -14.5l72 -715l442 76q18 0 31.5 -7t23 -16.5t13.5 -17.5l4 -8q6 -16 8 -39q1 -4 1 -10q0 -15 -5 -36q-6 -28 -23 -62q-55 -16 -117.5 -29.5t-97.5 -20.5q-18 -4 -60 -11t-103.5 -17t-139.5 -22.5t-166 -22.5 q-10 211 -16 314.5t-8 131.5q-4 43 -7.5 162t-3.5 336z" />
<glyph unicode="M" horiz-adv-x="1064" d="M76 115l190 929q10 1 18 1q31 0 54 -11q16 -6 24.5 -9t12.5 -5t8 -7t10 -14q20 -23 46 -62.5t42 -70.5l82 -151l45 45q14 14 42 42.5t58.5 57.5t61.5 52.5t55 31.5l11 4q12 4 31.5 7t45 4.5t54.5 -3.5l5 -1009q-16 -23 -45.5 -31t-60 -8t-52.5 3l-21 3q0 12 -2.5 71.5 t-6.5 138.5t-9 168t-9 163.5t-7 124t-5 47.5q-8 -4 -43 -32t-75 -59.5t-75 -56t-43 -20.5t-21.5 32.5t-27.5 64.5t-27.5 69.5t-21.5 50.5q-10 14 -18.5 38.5t-18.5 24.5q-6 -2 -12 -17t-15 -38q-2 -8 -15 -56t-31.5 -117t-41 -146.5t-42 -143t-35 -109.5t-19.5 -44 q-20 6 -44 18t-52 29z" />
<glyph unicode="N" horiz-adv-x="872" d="M90 868v7q0 13 5 21q7 12 18 15q10 6 24 7q6 0 38 -5.5t75 -13.5t89 -19.5t83 -23.5l16 -5q17 -5 38.5 -12.5t47 -16.5t43.5 -17l-20 147q-2 12 1 40t32 42q14 6 40 10q24 5 50 6h12q20 0 34 -2q20 -4 19 -10q2 -20 6 -68t10.5 -155.5t17.5 -291t28 -476.5 q-41 -6 -61.5 -1t-39.5 13q-16 10 -21 47t-9 62q-4 20 -8.5 49t-12.5 79t-19.5 130t-27.5 201q-63 33 -111.5 45t-50.5 12l-14 3q-14 3 -38 5t-53.5 3t-60.5 -1l21 -669q-11 -5 -25 -5q-9 0 -18 2q-25 5 -27 5q2 0 -8 4t-22.5 14t-22.5 27.5t-10 42.5z" />
<glyph unicode="O" horiz-adv-x="811" d="M98 455q-12 67 -12 128q0 185 109 304q23 25 51 43q24 16 56 28q28 11 59 11h10q17 2 33 2q62 0 126 -29q82 -37 129 -123q39 -70 59 -164q14 -67 13 -139q0 -30 -2 -61q-2 -43 -19.5 -97.5t-48 -104.5t-76.5 -86t-104 -42q-20 -2 -39 -2q-58 1 -108 19q-66 24 -114 71 t-78.5 110.5t-43.5 131.5zM283 555q0 -86 39.5 -145.5t78.5 -75.5q29 -12 60 -12q7 0 13 1q38 3 65 19q14 8 30.5 28.5t28.5 54.5t18 79q2 15 1 31q0 33 -7 71q-16 76 -40.5 110t-49.5 48q-22 14 -58 18q-8 1 -16 1q-28 0 -55 -11q-53 -31 -83 -77q-26 -41 -26 -118 q1 -11 1 -22z" />
<glyph unicode="P" horiz-adv-x="763" d="M49 1073q90 23 141 29q31 4 54 6q28 2 56 2q50 0 100 -7q76 -11 139 -50t106 -109t55 -180q4 -33 3 -62q0 -52 -11 -96q-18 -66 -50 -111.5t-68.5 -72.5t-61.5 -39q-92 -31 -162 -31h-16l24 -409l-139 10zM283 901l39 -405q39 4 61.5 8t44.5 10q25 8 60 36t51 85 q11 42 11 80q0 31 -6 59q-16 64 -40 92q-27 33 -65 46.5t-72.5 13.5t-59 -8.5t-24.5 -16.5z" />
<glyph unicode="Q" horiz-adv-x="868" d="M41 502v22q0 95 15 164q18 78 44.5 131t57 85t53.5 48q66 49 122 54q27 3 52 3q26 0 51 -3q25 -2 56.5 -12.5t64.5 -35t63.5 -65.5t51.5 -105q23 -74 30 -134q5 -47 5 -85v-22q-2 -47 -9.5 -80t-13.5 -53q-25 -80 -66 -170q39 -18 72 -37t58 -35q28 -19 51 -37 q35 -35 63.5 -68.5t50.5 -68.5l-170 -121q-53 78 -94 119t-43 41q-16 16 -35 33q-33 29 -65 49q-29 -14 -58.5 -18.5t-54.5 -4.5q-29 0 -57 4q-37 6 -87 29t-94 70t-77 120.5t-37 182.5zM231 545q0 -35 7.5 -85t27 -94t52.5 -73q26 -24 67 -24q9 0 18 1q51 6 86 54.5 t53.5 114t21.5 135.5q1 15 1 28q0 54 -10 96q-18 88 -53 120t-70 36q-8 1 -15 1q-35 0 -66 -15q-38 -19 -66 -68q-29 -49 -41.5 -111.5t-12.5 -115.5z" />
<glyph unicode="R" horiz-adv-x="911" d="M92 1198q122 13 201 13h29q84 -3 133 -7q49 -2 127 -47q41 -20 69.5 -40.5t48.5 -41.5q51 -55 76 -135q15 -48 15 -108q0 -41 -7 -89q-16 -72 -46.5 -129t-106.5 -112l256 -408q-66 -33 -100.5 -49t-52 -23.5t-21.5 -6.5t-6 3q-4 2 -20.5 28t-40 63.5t-50.5 79.5 t-51.5 80t-43 64.5t-22.5 33.5q-14 18 -26.5 26t-46.5 0q-33 -8 -64 -18t-63 -23q-6 -137 -14.5 -211.5t-18.5 -109.5q-6 -23 -10 -33t-18 -11h-4q-14 0 -36 5q-26 6 -78 16zM285 588q31 2 61.5 10t54.5 18q29 10 54 25q63 35 88.5 78t31.5 100q4 27 4 50q0 15 -2 28 q-4 33 -16 57.5t-29.5 43t-37.5 34.5q-25 16 -54 27q-26 10 -60 16q-17 3 -35.5 3t-39.5 -3z" />
<glyph unicode="S" horiz-adv-x="794" d="M-116 32q3 24 12.5 47t21.5 38q14 20 34.5 34.5t39 22.5t34 9t21.5 -1q16 -14 44 -35.5t62.5 -41t73.5 -34t76 -14.5q86 0 139.5 47.5t69.5 112.5q6 24 6 48q0 29 -9 59q-17 54 -46 98q-4 8 -28.5 44t-57.5 84t-65.5 96t-53.5 81q-20 31 -36 71t-24 84q-4 25 -5 51 q1 19 3 37q6 44 29 85q27 45 63 71q36 24 77 36q34 9 71 10h16q46 -2 93 -11l21 -5q22 -5 59 -20.5t87 -41t109 -68.5q-37 -59 -58.5 -90t-32.5 -44t-14 -14t-5 -1q-4 4 -39 18t-80 24.5t-91 10.5t-77 -21q-29 -18 -33 -66q-1 -7 -1 -14q0 -41 20 -84q12 -25 44.5 -70.5 t69.5 -95t72 -94.5t51 -67q14 -18 32.5 -57t33 -88.5t18.5 -104.5q1 -11 0 -22q0 -44 -12 -85q-37 -123 -138.5 -185t-242.5 -66h-16q-62 0 -124 14q-70 16 -129 40.5t-104 50.5t-65 42q-12 11 -16 31q-2 11 -1 22q0 11 1 22z" />
<glyph unicode="T" horiz-adv-x="860" d="M31 838q0 16 3 36.5t13 40.5q217 8 358.5 13.5t225.5 8.5t122 4t50 1h10q10 0 14 -10t4 -25.5t-4 -33t-8 -31.5q-6 -20 -7 -22.5t-13 -6.5q-10 -4 -68.5 -16.5t-187.5 -32.5l12 -854l-135 37l-62 794q-117 -16 -176 -24t-90 -10q-23 0 -39 28.5t-20 61.5q-2 20 -2 41z " />
<glyph unicode="U" horiz-adv-x="1093" d="M45 588q-1 18 -1 38q0 117 22 255q47 8 73 8h24.5t11.5 -7.5t4 -22.5t5 -46q6 -61 10.5 -140t14.5 -141q4 -27 10 -63.5t15.5 -77.5t22.5 -81t32 -70q39 -61 84 -84t92 -27h14q79 0 137 42q64 46 109 175q18 51 24.5 130t7.5 156q0 38 0.5 71.5t-0.5 61.5q-1 56 3 62 q10 10 42 35t83 35q18 2 39 2q16 0 35.5 -3t35.5 -13q6 -57 7.5 -106.5t1.5 -86.5v-45t-1.5 -32.5t-3.5 -37t-6 -59.5q-6 -78 -30.5 -169t-83.5 -189q-70 -118 -188 -188q-103 -62 -220 -61q-17 0 -33 1q-68 6 -121 31.5t-95 61.5t-69.5 77t-41.5 78q-16 53 -27.5 103 t-20.5 97q-14 98 -18 230z" />
<glyph unicode="V" horiz-adv-x="913" d="M-23 1104q23 23 45 30q18 5 33 5h8q23 -3 43 -11q12 -14 33 -47.5t59 -110.5t99 -207t156 -335q43 133 72.5 226.5t53 159t40 109.5t32.5 81q29 54 85 72q28 9 58 9t62 -8q16 -4 35 -12q16 -8 32.5 -20.5t30.5 -30.5q-37 -80 -70.5 -151.5t-60.5 -125.5l-41 -86l-84 -174 l-227 -459q-3 -8 -13 -8h-4q-14 2 -24 8q-8 6 -9 6.5t-13 14.5q-14 16 -44 69.5t-80.5 173t-126 318.5t-180.5 504z" />
<glyph unicode="W" horiz-adv-x="1208" d="M45 926q63 45 115 45q51 0 73.5 -14.5t26.5 -16.5q20 -33 39.5 -78t40 -121.5t43.5 -192.5t49 -288l189 320l59 8l194 -228l175 633l114 -59q-10 -63 -24.5 -145t-29.5 -168t-32.5 -169t-34 -149.5t-31 -111t-26.5 -52.5q-31 -20 -55.5 -23t-46 4t-41 22.5t-35.5 31.5 q-72 80 -148 195q-47 -90 -83.5 -151.5t-63.5 -100.5t-45 -58.5t-27 -25.5q-12 -8 -13 -8t-19 -5h-7q-16 0 -37 8q-26 10 -40 38z" />
<glyph unicode="X" horiz-adv-x="851" d="M25 194q-1 3 -1 6t1 5q4 8 18 30.5t48 69.5t89.5 124t143.5 194l-177 358q45 27 70 38t37 11t20.5 -11t22.5 -26q20 -27 55 -84t90 -164q49 57 84 96.5t58.5 64t39 37.5t25.5 24q27 18 50.5 27.5t43.5 4.5q20 -2 43 -7t76 -25q-35 -39 -93 -102.5t-113.5 -126 t-94.5 -108.5t-37 -52q2 -2 10.5 -17.5t32 -61.5t64.5 -132t106 -228q-14 -29 -67 -82q-2 -2 -33 -23.5t-72 -25.5q-37 109 -61.5 181.5t-41 117.5t-24.5 67.5t-12 31.5q-4 10 -12 17t-29 -22l-238 -327q-45 41 -70.5 65.5t-37.5 36.5t-14 18z" />
<glyph unicode="Y" horiz-adv-x="845" d="M61 1038q10 10 24.5 14.5t27.5 4.5q14 0 30 -4q31 -8 63 -44t60.5 -79t52 -82t39.5 -55q29 -31 50.5 -36t37.5 1q35 18 68 39.5t63.5 54.5t58.5 79t56 111l99 -47q-4 -70 -22.5 -124t-41 -93t-44 -63.5t-34.5 -36.5q-12 -12 -45 -37t-63 -45q-29 -18 -51.5 -33.5 t-28.5 -25.5q-6 -16 -11.5 -40t-13.5 -66t-17 -107.5t-24 -165.5q-29 -16 -51 -19.5t-39 -5.5h-20.5t-29.5 2t-26.5 4t-11.5 6q0 2 7 33t18.5 76t24 98.5t21.5 101.5t14 84.5t1 47.5q-10 25 -44 72t-62 102q-39 74 -73 143t-63 135z" />
<glyph unicode="Z" horiz-adv-x="860" d="M104 170q2 29 11.5 63.5t26 70.5t36.5 61q25 31 53.5 67.5t69.5 86.5t98.5 119t139.5 165l-279 35q-10 35 -6 58.5t13 36.5t19 21l11 7q4 2 52 3h33q34 0 74 -1q60 -2 114.5 -7.5t70.5 -13.5q35 -18 46 -44t13 -50q0 -25 -11 -52.5t-23 -50.5t-40 -65.5t-63 -91.5 q-33 -49 -68.5 -100.5t-64.5 -93.5t-47 -69.5t-14 -27.5q2 -1 13 -1q16 0 52 2q12 1 25 1q52 0 121 -10q33 -4 70.5 -12.5t72.5 -19.5t63.5 -22.5t42.5 -21.5v-5q0 -14 -8 -40q-10 -31 -41 -90q-45 10 -92 19t-125 14q-35 2 -73.5 5t-91 5t-122 4t-163.5 4q-9 10 -9 34v7z " />
<glyph unicode="[" horiz-adv-x="446" d="M47 -207l10 1512l267 2l8 -41l-139 -17l45 -1355l176 -41l-4 -91q-29 -8 -72 -13t-92 -2t-101.5 13.5t-97.5 32.5z" />
<glyph unicode="\" horiz-adv-x="638" d="M78 1204h78l483 -1323q-20 -33 -38.5 -54.5t-41 -35.5t-51.5 -21.5t-66 -9.5z" />
<glyph unicode="]" horiz-adv-x="446" d="M47 -147l176 41l45 1355l-139 17l8 41l266 -2l11 -1512q-47 -23 -98.5 -33t-100.5 -13t-92 2t-72 13z" />
<glyph unicode="^" horiz-adv-x="1073" d="M145 811l387 246l412 -238q-4 -29 -20.5 -47t-36.5 -31q-23 -14 -51 -24l-295 233q-45 -47 -82 -76.5t-76 -51t-85 -42t-108 -49.5z" />
<glyph unicode="_" horiz-adv-x="956" d="M0 -150h918v-139h-918v139z" />
<glyph unicode="`" horiz-adv-x="573" d="M133 1100q4 20 12.5 44.5t22.5 47t34.5 40t49.5 23.5l227 -292l-57 -45z" />
<glyph unicode="a" horiz-adv-x="792" d="M-25 633q66 72 126.5 116t107.5 68.5t77.5 33.5t35.5 11q12 2 38 3h7q23 0 50 -5q32 -6 66.5 -20t67.5 -45q27 -41 52.5 -93.5t49 -135.5t48 -206.5t51.5 -306.5l-119 -53l-41 133q-53 -43 -104.5 -62.5t-96.5 -24.5q-28 -3 -52 -3q-15 0 -28 1q-35 3 -51 7 q-23 4 -58.5 32t-58.5 67q-20 39 -24 86q-1 9 -1 17q0 39 15 79q23 37 49.5 69.5t64.5 58t90 45t126 30.5q-10 57 -21.5 79.5t-17.5 30.5q-6 9 -35 27q-16 10 -40 10q-19 0 -42 -6q-25 -6 -61.5 -26.5t-70.5 -43t-59.5 -41t-27.5 -20.5q-12 4 -36.5 23.5t-76.5 64.5z M324 231q0 -23 12 -43t47 -24h9q19 0 40 6q23 6 54.5 18.5t70.5 40.5q-12 59 -22.5 89t-21.5 40q-7 7 -16 7q-5 1 -11 -1q-16 -6 -40 -14q-31 -10 -47 -18q-8 -4 -21 -11.5t-25.5 -20.5t-20.5 -30.5t-8 -38.5z" />
<glyph unicode="b" horiz-adv-x="681" d="M27 1198l163 53l72 -714q86 39 127 41q23 2 37 3t18 1q10 0 41 -7q23 -4 48.5 -15t49 -31.5t42 -49t28.5 -69.5q8 -40 7 -80q0 -44 -9 -87q-18 -81 -88 -141q-53 -42 -113 -66q-52 -20 -131 -21q-13 0 -28 1l-4 -77l-105 -21l-153 1272zM272 375l13 -225q13 -2 24 -2 q14 0 27 3q22 5 39 9q21 6 37 14q16 10 34 30q17 20 28 46q10 24 10 51q0 33 -23 66q-16 23 -49 28.5t-50 5.5q-59 -10 -90 -26z" />
<glyph unicode="c" horiz-adv-x="593" d="M41 371q2 98 60.5 165.5t146.5 90.5l20 3q13 2 29 2q11 0 23 -1q30 -2 68 -12.5t77 -36.5l-53 -125q-39 18 -71 23t-54 3q-27 -2 -49 -12q-27 -14 -38.5 -38.5t-11.5 -51.5t6.5 -51.5t14.5 -36.5q10 -12 40 -40t73 -32q27 0 57 8q27 8 61.5 26.5t75.5 57.5l62 -61 q-12 -35 -34 -62.5t-45.5 -49t-47 -36t-37.5 -20.5q-27 -10 -50.5 -16.5t-74.5 -6.5q-27 0 -54.5 4.5t-48.5 16.5q-78 44 -112 116q-33 68 -33 162v11z" />
<glyph unicode="d" horiz-adv-x="694" d="M37 231q-1 11 -1 21q0 73 37 131q42 66 113 96q2 1 58 17q37 10 89 10q26 0 56 -2l-115 731l187 8l164 -1292l-113 -17l-41 164q-25 -31 -47 -45q-23 -14 -30 -18t-34 -12q-37 -11 -82 -11h-3q-43 0 -80 13q-23 8 -49.5 24.5t-49 42t-39 60t-20.5 79.5zM200 242 q3 -28 17 -49t31 -27q24 -10 49 -11q19 0 39 7q25 10 44 34q16 20 16 55q0 7 -1 15q-2 23 -16 40.5t-33.5 27.5t-41.5 12h-9q-17 0 -33 -6q-39 -16 -52 -43q-11 -22 -11 -44q0 -6 1 -11z" />
<glyph unicode="e" horiz-adv-x="643" d="M43 313q-4 26 -4 53.5t4 55.5q8 56 32.5 103.5t65.5 85.5t97 57q39 15 81 16q21 0 41 -4q64 -12 115 -53q33 -27 58.5 -72t29.5 -98q2 -15 2 -28q0 -30 -10 -49q-14 -26 -25 -38q-10 -12 -55 -26q-40 -13 -90 -13h-14l-17 2q-16 2 -39.5 8t-52.5 19.5t-55 36.5 q-10 -16 -5 -41t9 -41q4 -14 26.5 -29.5t55.5 -26.5q27 -6 55 -6q25 0 54.5 8.5t58.5 32.5l59 -112q-10 -8 -37.5 -28t-56.5 -28q-35 -10 -83 -14q-14 -1 -28 -1q-34 0 -69 7q-25 4 -56.5 19.5t-61.5 43t-53.5 67.5t-31.5 93zM244 460q8 -26 53 -40q39 -12 72 -14q2 0 4 1 q30 0 45 21q8 15 8 31q0 7 -2 15q-6 24 -21 40q-21 23 -47 29q-20 5 -35 5q-5 0 -10 -1q-18 -4 -36.5 -15.5t-24.5 -21.5q-9 -16 -9 -32q0 -9 3 -18z" />
<glyph unicode="f" horiz-adv-x="757" d="M-31 381q-2 8 -2 16.5t2 16.5q4 12 12.5 25.5t30.5 19.5h267q29 147 50 225t31 104q8 18 30 55.5t73 80.5q53 45 138 84t210 43l-33 -238q-123 -31 -215 -74q-31 -18 -56.5 -45.5t-44 -58.5t-30.5 -60.5t-18 -54.5q-6 -23 -8.5 -36t0 -18t11.5 -4t27 5l207 -16l-57 -185 l-225 -4q-18 -78 -34 -150.5t-26 -144.5l-2 -15t-4 -34.5t-4 -40t-2 -31.5l-92 7l45 426l-230 6q-29 27 -51 96z" />
<glyph unicode="g" horiz-adv-x="731" d="M-213 -188l150 190q76 -78 147.5 -108.5t101.5 -32.5q16 -6 41 -6t48.5 6t45 16t31.5 27q16 20 31 51q12 27 24.5 66.5t18.5 97.5q-35 -8 -66.5 -8t-56 4t-39.5 9l-16 5q-41 14 -72 44t-48 68t-22 79q-1 11 -1 22q0 31 10 61q12 43 38.5 75t60.5 54.5t69.5 35t64.5 16.5 q2 0 22.5 3t57.5 3q18 0 36.5 -1t39.5 -3l41 180q27 10 45 15t31 7q5 1 9 1q8 0 13 -3q10 -10 12 -32v-9q0 -21 -6 -55q-39 -199 -60.5 -315.5t-31.5 -177.5q-6 -31 -9 -49.5t-4 -30t-3 -18.5t-4 -15q-2 -16 -12.5 -63.5t-26.5 -94.5q-14 -49 -35 -94t-47 -76 q-53 -61 -114.5 -87.5t-108.5 -26.5q-47 2 -76 5t-70 15q-72 31 -137.5 68t-122.5 82zM309 298q19 -32 39 -36q16 -5 31 -5q17 0 32 7q28 11 38 27q10 18 14 54l8 56q0 7 -15 15q-16 10 -40 12h-9q-20 0 -43 -8q-26 -10 -45 -41q-18 -30 -18 -53q0 -15 8 -28z" />
<glyph unicode="h" horiz-adv-x="684" d="M55 1137q37 12 47 12h29q18 -4 40 -12.5t24 -36.5v-17q0 -12 1 -43.5t5 -93t11 -157t17 -234.5q86 41 129 52t64 14q20 2 57 -4.5t70 -30.5q61 -44 81 -110q18 -59 17 -162v-21q-4 -37 -7 -75t-9 -80t-16.5 -91t-24.5 -110q-12 0 -25.5 1t-29.5 3q-29 2 -45.5 6t-63.5 6 q14 82 22.5 141.5t11.5 98t4 60t-1 32.5q-2 6 -2 21.5t-5 35.5t-18.5 42t-40.5 38q-20 4 -43 2q-20 -2 -46.5 -7t-59.5 -20l8 -307q-51 -15 -84 -15q-10 0 -18 1q-35 8 -43 153l-21 344q-10 197 -17 309.5t-11.5 169t-5.5 63.5z" />
<glyph unicode="i" horiz-adv-x="464" d="M90 132q-2 21 -2 46q0 60 14 139q8 37 18.5 74t27 77t41 84t59.5 97q31 -6 48 -12t24.5 -11t7.5 -8.5v-5.5t-10.5 -34.5t-23.5 -74.5t-26.5 -83t-19.5 -62q-16 -61 -24 -112q-3 -18 -3 -34q0 -30 10 -54q8 -18 22.5 -29.5t30 -20t30 -17.5t22.5 -21q20 -23 14 -42.5 t-20 -41.5q-31 -41 -51 -54q-39 14 -64 27.5t-41 25t-27.5 22.5t-23.5 24q-25 27 -33 101zM272 813q0 14 2 25l2 10q16 70 36 98.5t42 50.5q12 11 35 17q12 3 24 3q11 0 21 -2q22 -5 41 -21.5t23 -47.5q3 -21 3 -39q1 -29 -7 -52q-12 -38 -33 -69q-10 -16 -26.5 -33.5 t-38.5 -26.5q-16 -7 -34 -7q-6 0 -12 1q-26 3 -53 30q-14 14 -19.5 31.5t-5.5 31.5z" />
<glyph unicode="j" horiz-adv-x="413" d="M-535 -362q63 16 166 39.5t209 89.5q68 41 127.5 114.5t100.5 190.5q12 37 24 97t23.5 119.5t18.5 106.5t9 58q2 10 4.5 28.5t5.5 37t7 35.5t8 26l3 4t15.5 7t36 3t64.5 -8q-27 -156 -46.5 -265.5t-33.5 -179.5l-19 -100l-16 -86q-4 -29 -17.5 -62.5t-33.5 -74.5 q-41 -84 -92 -135q-49 -55 -104.5 -86t-106.5 -43q-35 -10 -83 -17.5t-93 -10.5q-34 -2 -61 -2h-17q-33 1 -39 11q-23 35 -41.5 67.5t-18.5 35.5zM150 844q2 45 14 91t31 87q23 41 61 66q25 18 60 18q16 0 34 -4q39 -6 60 -43q17 -29 17 -64q0 -10 -1 -20 q-14 -104 -41 -158.5t-51 -83.5q-42 -44 -85 -44q-1 0 -3 1q-44 1 -64 17q-18 18 -26 55q-7 29 -7 62q0 10 1 20z" />
<glyph unicode="k" horiz-adv-x="739" d="M29 782q57 33 102 37t55 4q12 0 22.5 -10t16.5 -18q8 -23 18.5 -70t24.5 -135l279 284q18 0 28.5 -5t10.5 -7q14 -10 26 -20q10 -10 19.5 -24.5t13.5 -35.5q-20 -29 -42.5 -58.5t-44 -57t-39 -50t-30.5 -36.5l-30 -35q-12 -14 -31.5 -38t-32.5 -42l340 -377l-155 -100 l-277 344l19 -88l24 -211q-49 -14 -84 -15q-20 0 -41 15q-47 182 -79.5 309t-54 210t-33 129t-17.5 68.5t-7 24.5z" />
<glyph unicode="l" horiz-adv-x="452" d="M105 582q4 134 38 327l68 359q33 10 64.5 17t64.5 11q31 0 55 -6q23 -4 40.5 -17t19.5 -38l-156 -625q-19 -78 -25 -129q-5 -39 -4 -69v-17q4 -25 10.5 -58.5t18.5 -55.5q6 -10 12 -19.5t16.5 -23t27 -32t44.5 -44.5l-59 -139q-68 35 -113 84t-65 77q-12 20 -26.5 58.5 t-24.5 119.5q-7 61 -7 148q0 34 1 72z" />
<glyph unicode="m" horiz-adv-x="1021" d="M43 664q39 20 69 23q13 1 23 1q13 0 25 -2q20 -4 32 -12l11 -8q8 -6 16 -25.5t15.5 -38t14.5 -30t11 0.5q12 29 44 54.5t75 34.5q20 4 52 2t61 -21q45 -37 63 -76q12 -8 21.5 -3t13.5 9q6 6 29.5 35t68.5 41q23 6 50 6h14q34 -2 65 -20t58.5 -61.5t42.5 -75.5 q14 -41 25 -85t17.5 -98.5t8.5 -122.5q1 -23 1 -49q0 -50 -3 -110l-144 -4q2 30 2 58q0 35 -3 66q-5 56 -14 100t-20.5 75.5t-19.5 50.5l-18 37q-6 12 -32 23.5t-54 2.5q-29 -10 -40.5 -25.5t-19.5 -43.5q-2 -2 -2 -37v-70q0 -37 1 -66.5t3 -29.5l-57 -6h-19.5t-19.5 -2 q-18 -4 -25 49q-6 47 -18 108q-10 57 -15.5 75t-5.5 20q-8 20 -26.5 31.5t-38.5 9.5q-41 -4 -60.5 -30t-23.5 -48q-5 -31 -5 -71q0 -20 1 -42q4 -66 11 -128t11 -107t-4 -47q-29 -6 -60.5 -12.5t-66.5 -10.5q-6 35 -15 83t-24.5 127t-40 197.5t-61.5 297.5z" />
<glyph unicode="n" horiz-adv-x="698" d="M37 633l176 65l27 -159q41 41 80.5 61.5t74.5 28.5t62.5 6t44.5 -8q25 -6 46 -23.5t46 -71.5q25 -51 44 -148q14 -74 14 -185q0 -35 -1 -74l-108 -41q-8 57 -11.5 77.5t-4.5 28t-2 12.5t-7 29q-4 20 -13 49t-23.5 57t-33 49.5t-40.5 29.5q-31 12 -61 6t-53.5 -20.5 t-39.5 -32t-21 -29.5q-4 -16 -6 -37.5t-3 -59.5t-4 -96.5t-5 -146.5l-104 6z" />
<glyph unicode="o" horiz-adv-x="679" d="M29 367v11q1 98 33 158q34 62 79 95t88 43t60 12q12 2 26 2q21 0 41 -4q36 -6 72.5 -22.5t69 -45t57.5 -67.5q25 -41 41 -111q11 -48 11 -98q0 -22 -2 -44q-7 -73 -48 -138.5t-129 -98.5q-53 -20 -100 -20q-30 0 -60 9q-72 22 -126 73t-83.5 118.5t-29.5 127.5zM174 442 q0 -29 4 -51t8 -49q6 -27 29 -56.5t47 -43.5q28 -14 50 -16q12 -1 21 -2q7 0 13 1q10 2 28.5 15.5t34 39t22.5 62.5q3 15 3 33q0 25 -6 53q-8 49 -32.5 75.5t-51.5 40t-49.5 15.5t-28.5 2q-25 -2 -49 -20q-25 -12 -33 -40t-10 -59z" />
<glyph unicode="p" horiz-adv-x="718" d="M84 -399l22 1134l209 -2l-12 -131q25 23 53.5 35t53.5 18q29 8 59 9q80 -2 134.5 -57t70.5 -118q13 -44 13 -93v-7q-1 -53 -18.5 -102t-52 -90t-86.5 -64q-65 -23 -122 -23h-2q-58 1 -119 42l-80 -545zM372 454q-3 -15 -3 -33q0 -20 4 -44q4 -18 15 -38t28.5 -34 t41.5 -20q10 -3 21 -3q14 0 31 5q31 8 46 26.5t22 42.5q5 22 5 44v6q-1 26 -5 49q-2 12 -10.5 27.5t-23 29.5t-36.5 22q-14 6 -32 6q-8 0 -17 -1q-16 0 -34.5 -8.5t-32 -27t-20.5 -49.5z" />
<glyph unicode="q" horiz-adv-x="698" d="M12 485q2 27 13.5 69t39 84t74.5 76t121 42h33q31 0 83 -14.5t101 -55.5l15 129l122 -12q-4 -47 -12 -127t-19.5 -176.5t-23.5 -201.5t-24.5 -206.5t-23.5 -190.5t-19 -153l126 68l23 -103q-59 -76 -106.5 -120t-79.5 -66q-37 -27 -68 -35q-12 -3 -22 -3q-21 0 -33 11 q-17 17 -23 40.5t-5 47t3 33.5q4 23 10.5 61.5t17.5 112.5t28.5 194t46.5 304q-31 -37 -71 -51.5t-77 -18.5q-35 -4 -58.5 -1t-51.5 7q-27 6 -61 39t-52 72q-18 41 -23 81q-5 29 -5 50q0 8 1 14zM217 418q16 -35 43 -47q9 -5 22 -5q5 0 10 1q19 2 39.5 11t38 26.5t25.5 44.5 q14 39 14 68q0 11 -2 21q-8 33 -24 50q-10 10 -33 16q-6 2 -14 2q-18 0 -43 -10q-43 -14 -72 -90q-11 -29 -11 -53q0 -19 7 -35z" />
<glyph unicode="r" horiz-adv-x="698" d="M41 782q51 29 85 40.5t54 12.5h5q15 -1 22 -5q8 -6 10 -11q4 -18 11.5 -62t23.5 -132q41 39 78 63.5t64.5 37.5t43.5 18l17 4q41 10 76.5 11t62.5 -3q31 -4 55 -11l-1 -8t-2 -32.5t-4 -68.5t-7 -118q-70 6 -117 6t-87 -8t-77 -26.5t-86 -47.5q12 -162 17.5 -250t5.5 -131 q-2 -31 0 -42t-5 -16t-30 -11t-72 -27z" />
<glyph unicode="s" horiz-adv-x="630" d="M51 27q98 12 178 51q20 12 29.5 26.5t12.5 28.5t1 24.5t-4 14.5q-16 37 -57 88t-80 94q-16 25 -25.5 37t-14.5 27.5t-9 37t-10 64.5q2 31 9 58.5t25 52.5t52.5 47t58.5 33q27 10 50.5 16t64.5 10q22 2 47 2t55 -2q58 -4 129 -26l-20 -185q-59 10 -101 12h-23 q-28 0 -48 -3q-33 -6 -56 -17q-37 -18 -44 -57q-2 -11 -2 -22q0 -26 12 -46q4 -6 23.5 -41t43 -78t43 -82.5t23.5 -56.5q8 -27 10 -57.5t-4 -60t-22.5 -56.5t-43.5 -45t-62.5 -28.5t-69.5 -16.5t-59.5 -7t-33.5 -1h-43z" />
<glyph unicode="t" horiz-adv-x="645" d="M45 526q-1 22 -1 39t1 29q2 12 2 18v9q0 2 3 26.5t1 40.5l166 -16l-20 305q61 -23 80.5 -31t25.5 -20t18.5 -71.5t30.5 -182.5l197 -21l14 -184l-180 -8l80 -494q-29 -35 -65 -57.5t-101 -28.5l-53 572l-189 -5q-8 37 -10 80z" />
<glyph unicode="u" horiz-adv-x="837" d="M29 484q-2 30 -2 64t2 73l196 -15q0 -39 2 -49q4 -16 5 -20.5t4 -38.5q2 -25 7 -55.5t16 -61.5t30.5 -55.5t50.5 -36.5q24 -9 42 -9q16 0 28 7q24 14 34 26q23 27 23 58v5q-2 34 -6 60q-6 41 -16.5 91.5t-24.5 109.5l160 10q23 -119 42 -183.5t27 -84.5q16 -29 55 -89.5 t113 -133.5q-16 -27 -43 -41q-25 -16 -33 -21.5t-30 -13.5q-35 -10 -65 -11h-4q-26 0 -36 11q-12 20 -35.5 54t-64.5 93q-23 -41 -51.5 -66.5t-57 -41t-54.5 -21.5t-42 -6h-24.5t-26.5 2q-27 2 -76 36t-84 91q-16 33 -28.5 71t-20.5 85t-12 107z" />
<glyph unicode="v" horiz-adv-x="692" d="M29 694q80 41 131 49q14 -4 36.5 -44t45.5 -81q14 -25 18 -38q4 -10 24.5 -55.5t67.5 -159.5q16 49 24.5 71.5t20 49t27.5 73.5t49 143q44 14 78 14h10q37 -2 57 -20l-223 -620q-12 -2 -23.5 -2t-20.5 2q-19 4 -34 10q-16 8 -30 16q0 2 -6.5 13.5t-31 68t-76.5 175 t-144 335.5z" />
<glyph unicode="w" horiz-adv-x="1034" d="M35 559q6 33 35 51q12 9 30 15q2 0 37 6q10 2 19 2q26 0 55 -12q16 -131 39.5 -207t34.5 -103q10 -27 28.5 -48t40.5 -19q18 0 32.5 11t26 27.5t18.5 34l11 27.5q16 61 25 137l68 21q6 -68 10 -96.5t8 -49.5q8 -25 25.5 -54.5t33.5 -31.5h3q55 0 94 86l8 20q8 21 19.5 58 t20.5 86t13 103l172 6q-6 -59 -17.5 -110.5t-21.5 -88.5q-12 -45 -24 -80q-29 -76 -58.5 -123t-62.5 -80q-37 -39 -84 -61q-32 -15 -59 -16q-13 0 -25 4q-27 8 -49 28q-18 16 -33.5 45t-20.5 76q-18 -31 -29.5 -46t-19.5 -22.5t-14 -12.5l-18 -15q-25 -19 -67 -31 q-21 -6 -47 -6q-25 0 -54 6q-53 12 -88 67.5t-62 127.5q-20 70 -32.5 136.5t-20.5 131.5z" />
<glyph unicode="x" horiz-adv-x="729" d="M37 78q27 41 46 70.5t32 46.5q27 35 55.5 69.5t81.5 97.5q6 14 -2 23q-6 10 -9 13t-28 30q-16 18 -35.5 43t-38 47.5t-31 39.5t-14.5 24q-4 20 -4 30q0 16 19 29q37 33 86 68q35 -31 51 -47.5t23 -25.5t12.5 -15.5t15.5 -18.5q23 -27 50.5 -56.5t37.5 -35.5 q6 -2 27.5 23.5t51.5 57.5t59.5 59.5t51.5 29.5q39 -4 68 -25q-31 -41 -42 -55t-15 -19.5t-7.5 -7.5t-17.5 -18q-12 -12 -27.5 -29.5t-30 -35t-23.5 -31t-9 -17.5q0 -25 74 -104q35 -35 69.5 -72t69.5 -76q-53 -45 -84 -66.5t-39 -25.5q-8 -2 -21.5 -2t-27.5 19 q-16 18 -53 57t-115 119q-61 -72 -97 -112t-54.5 -60.5t-24.5 -27.5t-8 -11l-17.5 -17.5t-26 -21.5t-29.5 -14q-5 -1 -10 -1l-20 5q-18 20 -20 47z" />
<glyph unicode="y" horiz-adv-x="667" d="M-129 -246q-1 13 -1 26q0 51 13 93q49 -39 94 -45q20 -4 30.5 -6t15 -2h8.5h12q27 0 67 14t95 57q29 23 57 56q25 29 51.5 67.5t48.5 87.5q-26 -6 -48 -6q-14 0 -26 2q-34 6 -59 17q-29 12 -53 30q-16 14 -33.5 37t-31 49.5t-22.5 53t-9 49.5q-2 20 -4 61q-2 35 -3 94.5 t-3 153.5q39 16 68 23q27 7 49 7h7q25 -1 49.5 -7.5t57.5 -16.5q-4 -72 -5 -118t-1 -70q0 -31 2 -43q4 -31 18.5 -68t53.5 -49q14 -6 26 -4q10 0 22.5 6t18.5 23l111 278l71 -33q-35 -129 -60.5 -212t-41.5 -130q-14 -47 -21.5 -65.5t-13.5 -34.5q-16 -39 -44.5 -104.5 t-96.5 -163.5q-47 -70 -106.5 -117t-115 -74.5t-99.5 -37.5q-37 -9 -53 -9h-5q-14 2 -29.5 15.5t-28 33t-21.5 42t-11 40.5z" />
<glyph unicode="z" horiz-adv-x="737" d="M23 702q0 2 8 31t47 58q56 3 121 3t139 -3q86 0 152.5 -11.5t89.5 -21.5q12 -6 5 -27.5t-23.5 -48.5t-37 -55.5t-35.5 -48.5q-14 -18 -36 -52q-20 -29 -52 -76t-82 -118q23 1 48 1h26q39 -1 76 -5t68.5 -10.5t52.5 -10.5q31 -6 48 -11t58 -22l-86 -184 q-115 20 -199.5 32.5t-144 20t-97.5 9.5t-58 2h-25q-16 0 -27 4q-10 4 -18 9t-10 19l354 430q-72 10 -106.5 11.5t-69.5 1.5q-16 0 -40 -1t-54 -3q-39 -4 -57.5 7t-26.5 27q-8 18 -8 43z" />
<glyph unicode="{" horiz-adv-x="454" d="M68 563q27 8 54.5 23.5t46.5 34t30.5 40t7.5 39.5q-4 29 -15.5 52.5t-23.5 48t-22.5 51.5t-14.5 59q-6 53 10.5 106.5t48 94.5t73.5 62.5t85 11.5q10 -31 3 -49.5t-19.5 -42t-23.5 -59.5t-11 -101q0 -55 18.5 -107.5t18.5 -111.5q0 -49 -36 -93t-87 -69q72 -35 101.5 -90 t29.5 -96q0 -39 -8 -77t-17.5 -76t-17.5 -75t-8 -76q0 -51 5 -81.5t11 -46t11 -19.5l6 -4l-58 -72q-45 39 -71.5 68t-42 58.5t-20.5 61t-5 76.5q0 53 10 94.5t23.5 76t24 67.5t10.5 68q0 53 -31 81.5t-84 45.5z" />
<glyph unicode="|" horiz-adv-x="423" d="M113 -231l92 1435l98 4l41 -1439q-31 -25 -63.5 -31t-63.5 -2t-57.5 14t-46.5 19z" />
<glyph unicode="}" horiz-adv-x="507" d="M125 1173q2 9 16 23q43 -2 81 -25.5t66.5 -61.5t44 -87t11.5 -102q-4 -33 -17.5 -55.5t-29.5 -42t-29.5 -39t-17.5 -48.5q-6 -41 31.5 -82t93.5 -57l6 -51q-51 -16 -67.5 -44t-16.5 -81q0 -35 10 -68t22.5 -67.5t22.5 -75.5t10 -94q0 -47 -5 -79t-19 -59.5t-42 -57.5 t-71 -69l-59 72l5 4t11 19.5t11.5 46.5t5.5 82q0 39 -8.5 75.5t-17.5 74.5t-17.5 76t-8.5 77q2 41 32 96t100 90q-51 25 -87 70t-36 92q0 59 19.5 111.5t19.5 107.5q0 61 -5.5 89t-13.5 42.5t-19.5 25.5t-23.5 40q-10 23 -8 32z" />
<glyph unicode="~" horiz-adv-x="755" d="M106 575q68 96 164 97q41 0 72 -13.5t56.5 -29t50 -28.5t53.5 -13q53 0 76.5 20.5t46.5 61.5l51 -29q4 -31 -7.5 -61.5t-34 -55t-56 -38t-76.5 -11.5q-43 4 -71 18.5t-52.5 30t-50 24.5t-64.5 3q-29 -4 -41 -11.5t-35 -21.5z" />
<glyph unicode="&#xa2;" horiz-adv-x="1024" d="M133 430q2 98 60.5 166t146.5 90h2q4 0 8 2l2 215l121 -4l-35 -211q29 -4 58.5 -14t60.5 -33l-53 -125q-39 18 -71 23.5t-54 3.5q-27 -2 -49 -13q-27 -14 -38 -38.5t-11 -51t6 -51t14 -37.5q10 -12 40 -39.5t73 -31.5q27 0 57 8q27 8 61.5 26.5t75.5 57.5l62 -62 q-16 -47 -48 -79.5t-63 -55.5q-37 -25 -76 -41q-10 -4 -22 -6t-27 -6l-20 -170l-82 6v164q-33 6 -53 18q-78 45 -113 117t-33 172z" />
<glyph unicode="&#xa3;" horiz-adv-x="948" d="M39 168q98 0 184 35q25 18 47 45q18 23 33.5 56.5t20.5 76.5l2 37q-94 2 -119 26q-18 18 -29 62q-4 18 1 30.5t16 20.5q10 8 24 14l127 4q20 123 60 211t106 149.5t161 96.5t228 49l-22 -241q-37 2 -76 -4q-35 -4 -75 -14.5t-75 -30.5q-43 -23 -73.5 -52.5t-51 -61.5 t-33 -61.5t-18.5 -50.5h92l123 -2l-26 -141l-209 -4q-4 -39 -10.5 -69t-14.5 -55.5t-16 -49t-17 -47.5q-2 -2 48.5 -1t119 -3.5t137 -18.5t103.5 -49q12 -14 18 -33q4 -16 3 -37.5t-17 -50.5q-125 33 -259 39t-245.5 0t-184.5 -17l-73 -12z" />
<glyph unicode="&#xa5;" horiz-adv-x="845" d="M70 1060.5q2 16.5 19 21.5t56 -3q33 -8 67 -45t64.5 -83t56 -88t42.5 -60q31 -33 53.5 -38t40.5 1q61 23 110.5 73t82.5 101q16 27 29.5 48.5t21.5 41.5q18 39 123 -12q-10 -88 -36 -164t-100 -158q-29 -31 -63.5 -56.5t-66 -46t-56.5 -36.5t-31 -27v-18l113 -4l-12 -70 l-107 -2v-22q0 -16 -2 -27l111 -4l10 -70l-123 -6q0 -47 -1 -106.5t1 -134.5l-1 -8q-1 -7 -9 -15t-25.5 -15.5t-48.5 -7.5q-16 -2 -34.5 2.5t-34 10.5t-26.5 12t-11 8t2 23.5t5 55.5t7 77t8 90l-112 -4l10 100l110 -2q0 10 1 20.5t1 20.5l-112 -2l-13 90l129 -4q4 51 -4 64 q-10 27 -46 77t-66 109q-20 41 -46 93t-48 97q-18 33 -29.5 59.5t-9.5 43z" />
<glyph unicode="&#xa8;" horiz-adv-x="1097" d="M257 1165.5q5 20.5 16.5 34.5t23.5 22.5t20 14.5q23 0 45 -6q18 -4 36 -16.5t28 -36.5q12 -35 2 -67t-43 -48q-14 -8 -39 -8q-31 0 -56.5 15t-31.5 42q-6 33 -1 53.5zM605 1152.5q5 21.5 16.5 35.5t24 22.5t20.5 12.5q23 0 45 -6q18 -4 35.5 -16.5t27.5 -37.5 q12 -35 2 -66.5t-43 -47.5q-18 -8 -38.5 -8.5t-39 8t-32 20.5t-17.5 29q-6 33 -1 54.5z" />
<glyph unicode="&#xa9;" horiz-adv-x="999" d="M74 440q-25 156 6 280t135 204q49 41 96 59t86 27q43 8 84 8q104 8 207 -35t162 -143q47 -80 69.5 -186.5t6.5 -229.5q-6 -47 -32 -108.5t-69 -116t-104.5 -93t-136.5 -43.5q-109 -6 -197 23t-153.5 81t-106.5 123.5t-53 149.5zM172 551q-4 -72 17.5 -136.5t56.5 -115.5 t78 -85t79 -46q68 -25 147 -23t136 29q29 14 65.5 49t65.5 90.5t42 132t-5 175.5q-12 66 -30.5 110.5t-41 76.5t-48 51.5t-52.5 35.5q-47 23 -118.5 32t-147.5 -14q-96 -31 -150 -92q-51 -59 -71.5 -119.5t-22.5 -150.5zM256 549q4 88 42 149.5t85 94.5q49 35 103.5 42 t99.5 3q37 2 60.5 -6.5t35.5 -21.5t15 -30.5t-3 -31.5q-4 -23 -12 -34.5t-18 -21.5q-8 -10 -28 -6t-75 8q-55 6 -94 -15.5t-66 -57.5q-29 -41 -28 -99q0 -57 20 -90q23 -35 61 -62.5t97 -11.5q29 8 51.5 24.5t36.5 33.5q16 20 27 41l104 -35q0 -2 -8 -32t-60 -87 q-41 -49 -100 -63.5t-100 -10.5q-29 2 -76 18.5t-84 51.5q-29 29 -46 64.5t-26.5 71.5t-11.5 65.5t-2 48.5z" />
<glyph unicode="&#xab;" horiz-adv-x="856" d="M186 455q27 43 58.5 90t64.5 94t66 91t63 81l56 -70q-74 -137 -141.5 -206.5t-86.5 -81.5q41 -43 101.5 -108.5t126.5 -164.5l-60 -67q-31 27 -65.5 70.5t-68.5 91t-63.5 95.5t-50.5 85zM430 461q18 31 48 70.5t63.5 81.5t68.5 84t64 77l55 -80q-41 -51 -94 -117.5 t-133 -125.5q18 -18 49 -48t66.5 -63t69.5 -66.5t58 -60.5l-7 -17q-7 -16 -19 -31t-26.5 -22.5t-26.5 7.5q-23 27 -54.5 63.5t-63.5 78.5t-63.5 85t-54.5 84z" />
<glyph unicode="&#xad;" d="M94 487v78l512 27l4 -129q-57 -2 -129.5 -1t-144.5 5t-136.5 9t-105.5 11z" />
<glyph unicode="&#xae;" horiz-adv-x="995" d="M74 449q-27 156 6 279.5t133 203.5q49 39 97 59.5t86 27.5t60 7h23q106 8 209 -35t162 -143q47 -80 68.5 -186.5t5.5 -229.5q-6 -47 -32 -108.5t-69 -115.5t-104.5 -93t-136.5 -43q-109 -6 -197 22.5t-152.5 80.5t-105.5 124t-53 150zM172 559q-6 -72 15.5 -136.5 t56.5 -114.5t78 -85t79 -47q70 -25 148 -23t135 29q29 14 65.5 49t66.5 90.5t43 132t-5 175.5q-12 63 -31.5 109t-42 78t-48 52.5t-52.5 34.5q-47 23 -119 32t-145 -13q-80 -25 -127 -69t-74 -93t-35 -95.5t-8 -76.5v-29zM309 868l66 4q29 2 60.5 3.5t60.5 -1.5 q59 -4 106 -25.5t70 -43.5q31 -29 46 -72t5 -102q-4 -31 -19.5 -54.5t-31.5 -39.5q-20 -20 -41 -33l153 -213q-4 -2 -27.5 -11.5t-78.5 -29.5q-4 4 -24.5 31.5t-44 59.5t-44 60.5t-24.5 32.5q-10 10 -17.5 14.5t-27.5 0.5q-18 -4 -47 -13.5t-31 -40.5q-2 -18 -4 -45.5 t-5 -53.5t-8.5 -43t-13.5 -17q-10 0 -27.5 3t-46.5 7zM436 805q-12 -256 19 -252q33 6 69 25q39 18 54.5 40.5t19.5 51.5q8 57 -16.5 84.5t-57 39t-60.5 11.5h-28z" />
<glyph unicode="&#xb4;" horiz-adv-x="692" d="M254 1001l227 293l119 -155l-289 -183z" />
<glyph unicode="&#xb8;" horiz-adv-x="749" d="M403 -123l15 150l78 -4l-7 -58q23 -2 50.5 -8t52 -21.5t40 -42t13.5 -69.5q0 -16 -6 -36.5t-22.5 -41t-45 -36t-75.5 -23.5l-23 65q25 18 37 28.5t22 26.5q8 16 -3 39t-42 31q-29 6 -45 4t-39 -4z" />
<glyph unicode="&#xbb;" horiz-adv-x="856" d="M186 213q25 27 59 60.5t69.5 66.5t66.5 62.5t49 48.5q-78 59 -131 125.5t-94 117.5l55 80q29 -35 63.5 -77t68.5 -84t63.5 -81.5t48.5 -70.5q-25 -39 -56.5 -83t-63.5 -85t-62.5 -79t-53.5 -64q-14 -16 -27.5 -8t-25.5 24q-14 18 -29 47zM438 741l56 70q29 -37 62.5 -81 t67 -91t65.5 -94t56 -90q-20 -37 -49.5 -85t-63.5 -95.5t-68 -91.5t-64 -70l-60 67q66 98 125.5 164t100.5 109q-18 12 -85 81.5t-143 206.5z" />
<glyph unicode="&#x2c6;" horiz-adv-x="714" d="M55 963l273 114l237 -116l-69 -109l-166 125l-215 -123z" />
<glyph unicode="&#x2da;" horiz-adv-x="690" d="M264 1063q0 55 17.5 87t41 49.5t45 22.5t29.5 5q31 4 70.5 -13.5t64.5 -58.5q12 -20 20.5 -56t5.5 -73t-23.5 -70.5t-65.5 -50.5q-45 -16 -83 -5t-64.5 37t-42 60.5t-15.5 65.5zM339 1064q-1 -15 1 -26l2 -12q6 -29 17.5 -43t24.5 -21.5t24.5 -8.5t17.5 -1q12 0 31.5 28 t11.5 77q-6 25 -18.5 39t-25.5 20t-24.5 7t-15.5 1q-16 -4 -25 -10q-12 -4 -16 -19.5t-5 -30.5z" />
<glyph unicode="&#x2dc;" horiz-adv-x="714" d="M41 1014q68 96 164 96q41 0 75.5 -16.5t64.5 -35t58.5 -34.5t57.5 -16q53 0 76.5 20.5t46.5 61.5l88 -39q-33 -72 -91.5 -119t-144.5 -43q-43 4 -70.5 18.5t-52 29.5t-50 24.5t-64.5 3.5q-29 -4 -41.5 -11.5t-34.5 -21.5z" />
<glyph unicode="&#x401;" horiz-adv-x="940" d="M61 545l127 26q-8 68 -16 129.5t-14 109.5t-9.5 78t-3.5 34q47 18 93.5 32.5t83 23.5t58.5 13l21 4q66 10 133.5 16.5t165.5 10.5q14 -47 14.5 -74.5t-3.5 -41t-11 -16.5l-8 -3q-84 -14 -163.5 -31.5t-190.5 -46.5l20 -197q57 12 89 18.5t60 10.5t60.5 7t94.5 14l6 -162 q-35 -6 -57.5 -13.5t-51.5 -15.5t-71 -18.5t-113 -22.5l18 -211l123 4q23 2 36 3t17 1l45 9q25 4 53.5 10t56.5 12t50.5 12.5t36.5 10.5q2 -10 5 -38t7 -87q-12 -16 -58 -34t-97 -32q-41 -8 -71 -16t-72 -16.5t-104.5 -16.5t-166.5 -16l-31 254l-10 86q-4 35 -129 14z M171 1206.5q5 20.5 16.5 34.5t23.5 22.5t20 14.5q23 0 45 -6q18 -4 36 -16.5t28 -36.5q12 -35 2 -67t-43 -48q-14 -8 -39 -8q-31 0 -56.5 15t-31.5 42q-6 33 -1 53.5zM519 1193q5 21 16.5 35.5t24 23t20.5 12.5q23 0 45 -7q18 -4 35.5 -16t27.5 -37q12 -35 2 -66.5 t-43 -47.5q-18 -8 -38.5 -8.5t-39 8t-32 20.5t-17.5 29q-6 33 -1 54z" />
<glyph unicode="&#x402;" horiz-adv-x="1007" d="M41 1040l670 -16l-31 -104l-256 -27l14 -197q53 27 92 42.5t68 25.5q33 10 57 14q49 4 96.5 -3t88.5 -40q39 -29 65.5 -70.5t41 -90t17.5 -99.5t-3 -98q-6 -45 -11.5 -84t-17.5 -81t-33.5 -91t-56.5 -115q-41 -78 -100.5 -133t-114.5 -90q-66 -41 -135 -70q-18 25 -33 47 q-12 18 -25.5 35t-17.5 23q-2 2 18.5 8t52 25.5t71.5 54.5t76 95t62.5 149.5t34.5 216.5q4 66 -18.5 102.5t-46.5 52.5q-27 16 -76 12t-129 -38l10 -469q-43 -14 -74.5 -16.5t-54.5 -0.5q-25 2 -43 8q-16 305 -28.5 514t-22.5 347l-199 -15z" />
<glyph unicode="&#x403;" horiz-adv-x="610" d="M76 1018q84 23 157.5 31t108.5 8q39 4 121 2t180 -21q0 -37 -2 -56t-4 -28.5t-4 -11.5t-4 -2t-20.5 -3t-45 -7t-56.5 -8t-54 -7q-66 -6 -114 -10t-103 -4q10 -63 19 -122.5t15 -104.5l13 -74q4 -27 15 -100.5t19 -161.5q10 -86 12.5 -132t-1.5 -61q2 -6 0 -15 t-12.5 -17.5t-30 -15.5t-54.5 -9q-41 0 -66.5 18.5t-25.5 24.5q-2 31 -7 103.5t-12 165t-15.5 193.5t-14.5 189t-10 152.5t-4 83.5zM188 1182l228 293l119 -156l-289 -182z" />
<glyph unicode="&#x404;" horiz-adv-x="802" d="M71 638q15 81 47 140.5t74.5 99t79.5 64.5q31 20 83.5 35.5t105.5 26.5q61 12 129 20l22 -162q-84 -16 -151 -53q-57 -31 -106.5 -83t-51.5 -136q-2 -80 11.5 -136.5t37 -97.5t54 -71.5t65.5 -61.5q47 -41 94 -66.5t88 -41.5q47 -18 92 -29l-16 -82q-160 -16 -293 23 q-57 16 -114.5 46.5t-106.5 81t-87 123t-54 173.5q-18 106 -3 187zM319 565l275 45l39 -155l-252 -68z" />
<glyph unicode="&#x405;" horiz-adv-x="794" d="M-116 31.5q3 23.5 12.5 47t21.5 38.5q14 20 34.5 34.5t39 22.5t34 9t21.5 -1q16 -14 44 -35.5t62.5 -41t73.5 -34t76 -14.5q86 0 139.5 47.5t69.5 112.5q14 53 -3 107.5t-46 97.5q-4 8 -28.5 44t-57.5 84t-65.5 96t-53.5 81q-20 31 -36.5 71t-24 84t-2 88t29.5 85 q27 45 63 70.5t77 37t87 9t93 -10.5l21 -5q22 -5 59 -20.5t87 -41t109 -68.5q-37 -59 -58.5 -90t-32.5 -44t-14 -14t-5 -1q-4 4 -39 18t-80 24.5t-91 10.5t-77 -21q-29 -18 -33 -66t19 -98q12 -25 44.5 -70.5t69.5 -95t72 -94.5t51 -67q14 -18 32.5 -57t33 -88.5 t18.5 -104.5t-12 -107q-37 -123 -138.5 -185t-242.5 -66q-70 -2 -139.5 14t-129 40.5t-104.5 50.5t-65 42q-12 10 -15.5 30.5t-0.5 44z" />
<glyph unicode="&#x406;" horiz-adv-x="724" d="M96 147q0 6 2 37t8 95q80 -2 122 -3.5t67 -3.5l55 519q-51 8 -81.5 12t-46 7t-20.5 4t-5 5q0 6 2 34t6 87h231q86 0 127 -1t51 -1h11q16 -2 22 -27.5t4 -48.5q-4 -41 -15 -60.5t-20 -23.5q-6 -2 -29.5 -6t-72.5 6q-23 -135 -37 -226t-23.5 -148.5t-14.5 -86t-7 -41.5 q-2 -10 18.5 -13t48 -5t55.5 -4t42 -6q12 -2 19.5 -32t2.5 -64l-1 -14q-1 -13 -6 -28.5t-12 -27.5t-19 -10q-172 23 -268.5 37t-144.5 22t-59.5 11t-11.5 5z" />
<glyph unicode="&#x407;" horiz-adv-x="724" d="M96 147q0 6 2 37t8 95q80 -2 122 -3.5t67 -3.5l55 519q-51 8 -81.5 12t-46 7t-20.5 4t-5 5q0 6 2 34t6 87h231q86 0 127 -1t51 -1h11q16 -2 22 -27.5t4 -48.5q-4 -41 -15 -60.5t-20 -23.5q-6 -2 -29.5 -6t-72.5 6q-23 -135 -37 -226t-23.5 -148.5t-14.5 -86t-7 -41.5 q-2 -10 18.5 -13t48 -5t55.5 -4t42 -6q12 -2 19.5 -32t2.5 -64l-1 -14q-1 -13 -6 -28.5t-12 -27.5t-19 -10q-172 23 -268.5 37t-144.5 22t-59.5 11t-11.5 5zM177 1136.5q5 20.5 16.5 35t24 22.5t20.5 14q23 0 45 -6q18 -4 35.5 -16t27.5 -37q12 -35 2 -66.5t-43 -48.5 q-14 -8 -39 -8q-31 0 -56.5 15.5t-31.5 41.5q-6 33 -1 53.5zM525 1123.5q5 21.5 16.5 36t24 22.5t20.5 12q23 0 45 -6q18 -4 35.5 -16.5t27.5 -36.5q12 -35 2 -67t-43 -48q-18 -8 -38.5 -8t-39 8t-32 20.5t-17.5 28.5q-6 33 -1 54.5z" />
<glyph unicode="&#x408;" horiz-adv-x="790" d="M-121 -2q6 41 27.5 87t70.5 62q31 -49 69 -76.5t75 -42t70.5 -17.5t54.5 1q33 4 61.5 29t65.5 96q37 74 70.5 208t41.5 355l-305 35q12 47 14.5 74t3.5 39t7 14t24 2q29 4 113 6l172 9q86 6 149.5 7t71.5 -3q31 -16 35 -82q-4 -29 -9 -57.5t-13 -57.5l-117 4 q-4 -25 -8.5 -81t-10.5 -129.5t-17 -158.5t-28.5 -164t-44 -146.5t-63.5 -106.5q-45 -49 -123 -83t-176 -18q-92 25 -162 65t-119 130z" />
<glyph unicode="&#x409;" horiz-adv-x="1392" d="M12 297q66 -10 127 8q53 14 108.5 56t94.5 133q33 80 53.5 173t30.5 176t14 144.5t4 81.5l-2 10h11l129 4l299 11l32 -17l13 -336q47 23 82.5 32t62.5 13q31 4 53 2q20 0 58.5 -6t76 -28.5t70.5 -65.5t43 -117q14 -111 -17.5 -218t-115.5 -181q-37 -35 -86 -57 q-41 -20 -98.5 -33.5t-126.5 -3.5l-10 -55l-146 -19l-35 903l-20 2l-105 9q-4 -78 -16 -174.5t-32.5 -191.5t-48.5 -180t-62 -139q-53 -80 -126 -117.5t-141 -52.5q-80 -16 -161 -10zM928 254q31 -6 57.5 -3t46.5 9q23 8 41 16q18 12 42 37t40 59t18.5 74.5t-20.5 81.5 q-10 14 -26.5 24.5t-35 16.5t-36 9.5t-25.5 3.5q-14 0 -31 -4q-14 -4 -32.5 -10.5t-38.5 -16.5v-297z" />
<glyph unicode="&#x40a;" horiz-adv-x="1187" d="M49 6q35 41 64 98q25 49 47 120t26 165q4 61 4 159.5t3 190.5q0 109 2 226q20 8 47.5 14t57.5 5t58.5 -9t47.5 -25l-3 -364q41 8 73 14t85 12q2 74 2 133.5v100.5q0 49 -2 88q18 10 45 18q23 6 59.5 10.5t90.5 -1.5l-11 -334q59 4 115 1.5t103 -16.5q39 -12 76.5 -34.5 t67.5 -57.5t46 -85t14 -118q-8 -147 -89 -232t-218 -95q-35 -4 -83 -2t-91 6q-51 4 -104 8l-15 428q-53 2 -87 1t-85 1q-4 -41 -12 -86t-20.5 -88t-25.5 -81t-28 -64q-27 -51 -69.5 -91t-71.5 -49q-29 -8 -63.5 -7t-55.5 40zM735 143q14 0 45 -1t65 5.5t64.5 23.5t44.5 54 q20 47 15.5 91t-54.5 79q-23 16 -71.5 23.5t-102.5 5.5z" />
<glyph unicode="&#x40b;" horiz-adv-x="903" d="M49 1034l653 -37l-14 -153l-264 24l-16 -182q96 33 153 39q31 4 51 4q45 -4 86 -19.5t72 -56.5q29 -37 44 -84t20.5 -98t-1 -104.5t-18.5 -102.5t-18 -89t-2 -79t18 -79t43 -89q4 -4 -7 -14t-28 -20q-18 -12 -41 -25q-23 18 -45 37q-18 16 -36.5 33.5t-28.5 33.5 q-2 4 -12.5 22.5t-19.5 54.5t-13 88t8 126q4 33 6 61.5t-3 55.5t-21.5 50.5t-47.5 43.5q-23 6 -49 10q-23 4 -54.5 2t-68.5 -12l-57 -481q-41 -6 -69.5 -3t-47.5 9q-23 8 -37 16q33 287 50.5 508t31.5 363l-207 20z" />
<glyph unicode="&#x40c;" horiz-adv-x="962" d="M113 1061q47 18 70.5 26.5t35.5 10.5t19.5 0t21.5 -2q33 -4 60.5 -9.5t27.5 -13.5v-53v-76t2 -83t5 -68.5t7 -32.5q12 -10 23.5 -3t17.5 13q8 10 23.5 28.5t44.5 53.5t75 92t118 148q76 -53 108.5 -81t34.5 -36q4 -8 0 -13.5t-31 -33.5l-79 -79t-91 -94t-72.5 -82 t-23.5 -46q12 -18 34.5 -45t62.5 -72t104.5 -116.5t162.5 -178.5q0 -10 -7 -23.5t-17 -23.5q-10 -12 -23 -25q-18 -16 -38.5 -27.5t-39 -18.5t-31.5 -9t-18 2q-12 14 -31.5 38t-58.5 71t-100 122.5t-158 194.5l19 -436q-6 -6 -18.5 -10t-22.5 -7q-14 -2 -29 -2q-66 6 -94 23 zM434 1198l228 293l118 -156l-288 -182z" />
<glyph unicode="&#x40e;" horiz-adv-x="831" d="M61 76h25.5t42.5 5t55.5 18.5t67.5 37.5q31 23 59 49q25 23 53.5 56.5t51.5 76.5q-41 -10 -76 -5t-61 16q-31 10 -56 26q-35 27 -67.5 73t-46.5 108q-16 59 -24.5 166.5t5.5 297.5q2 20 40 28.5t82 8.5t81 -8t35 -22q-16 -154 -11 -251.5t15 -148.5t29.5 -78.5 t60.5 -37.5q12 -6 29 0q12 4 29.5 19t35.5 52q18 35 40 108.5t40 147.5q23 86 43 182h111q-23 -127 -48.5 -246.5t-64.5 -231t-96.5 -217t-139.5 -206.5q-49 -59 -101 -94t-96 -52t-79 -22.5t-49 -3.5zM193 1286q-4 6 5 33t23 55q17 35 37 74q23 -35 53 -66q27 -27 62 -50 t80 -34q43 -10 95 -5t99 14q53 8 109 24l16 -78q-53 -25 -115 -47q-53 -18 -120.5 -33.5t-141.5 -13.5q-53 0 -88 11.5t-57.5 30t-35.5 41t-21 44.5z" />
<glyph unicode="&#x40f;" horiz-adv-x="890" d="M90 492q0 184 4 411q20 -4 41 -10q16 -4 37 -10t37 -13q20 -8 29 -24q4 -8 6 -17l24 -659q2 -12 6 -20t7.5 -15.5t11.5 -11.5q6 -4 15 -5t18 1l20 4l256 70q0 170 8 313q2 61 6.5 120.5t10.5 109.5t12 87t16 51q16 29 39 42.5t43 17.5q23 4 47 0l37 -721q4 -31 4 -55 q0 -23 -2 -45.5t-10 -38.5q-12 -23 -28.5 -33t-30.5 -14q-18 -6 -35 -7l-459 -61q-33 0 -61 8q-25 8 -50.5 23.5t-39.5 46.5q-6 10 -9.5 53t-5.5 106.5t-3 140.5t-1 155zM354 -281q10 14 21 35q8 16 17 38t14 44q4 23 7 44.5t5 37.5q2 18 0 35l129 33q4 -23 6 -49 q0 -23 -3 -52.5t-18 -62.5q-16 -41 -38.5 -68.5t-44.5 -46.5q-25 -23 -52 -35z" />
<glyph unicode="&#x410;" horiz-adv-x="995" d="M78 176q76 156 129 262.5t87 176t51 106.5t24 53q10 18 11 19.5t11 23.5q10 23 45 90.5t90 184.5l211 -7l162 -1024l-115 -16h-7t-9 27q-10 31 -24.5 86t-26.5 110.5t-21.5 97.5t-9.5 48q-18 10 -71.5 23.5t-165.5 35.5q-14 2 -22.5 3t-12.5 1h-8l-19 -31 q-10 -16 -21.5 -36.5t-25.5 -42.5q-27 -47 -58.5 -101.5t-59 -101.5t-46 -79t-20.5 -34q-4 -4 -24.5 15.5t-33.5 35.5q-8 16 -13 35t-7 39zM461 616l188 -51q-14 102 -24.5 157.5t-17.5 80t-10 29t-5 4.5l-7 -4q-7 -5 -23.5 -26.5t-41 -65.5t-59.5 -124z" />
<glyph unicode="&#x411;" horiz-adv-x="802" d="M63 997q111 27 209.5 38.5t171.5 15.5q86 4 162 2l12 -123q-90 -12 -169 -23q-68 -10 -134.5 -19t-97.5 -14l19 -206q27 4 60.5 9t66 9t60.5 6t46 0t61 -10t90.5 -41t87.5 -95.5t50 -170.5q6 -49 -10.5 -104.5t-48 -105.5t-80 -90t-105.5 -61q-47 -12 -106 -20 q-51 -6 -122 -5t-157 19zM254 512l27 -315q57 0 102 3.5t94 26.5q25 12 42.5 33t26.5 44.5t12 47t-1 41.5q-8 43 -36.5 77t-90.5 52h-51q-23 0 -55.5 -2t-69.5 -8z" />
<glyph unicode="&#x412;" horiz-adv-x="870" d="M82 80l108 1059q92 8 161 1t118 -20.5t80 -32t43 -32.5q29 -23 52.5 -75t25.5 -116q0 -37 -9.5 -67.5t-17.5 -53.5q-8 -20 -22.5 -36.5t-27.5 -28.5t-18 -16l-14 -9q27 -2 64 -28.5t70.5 -70.5t55 -101.5t15.5 -122.5q-4 -51 -29.5 -102.5t-66.5 -94.5t-94.5 -73.5 t-114.5 -41.5q-41 -2 -81 -2t-84 6.5t-96.5 19.5t-117.5 38zM264 240q49 -6 84 -8.5t58 -2.5q24 0 40 2q35 6 58.5 23.5t39 40t21.5 46.5t6 42q0 45 -22.5 83t-79.5 66q-37 10 -81 19.5t-95 13.5zM301 729q16 2 26.5 2h18.5h25q10 0 14 2t12 4q27 12 56.5 45t33.5 90 q4 41 -12 75t-39 52q-55 27 -114 29z" />
<glyph unicode="&#x413;" horiz-adv-x="610" d="M76 1018q84 23 157.5 31t108.5 8q39 4 121 2t180 -21q0 -37 -2 -56t-4 -28.5t-4 -11.5t-4 -2t-20.5 -3t-45 -7t-56.5 -8t-54 -7q-66 -6 -114 -10t-103 -4q10 -63 19 -122.5t15 -104.5l13 -74q4 -27 15 -100.5t19 -161.5q10 -86 12.5 -132t-1.5 -61q2 -6 0 -15 t-12.5 -17.5t-30 -15.5t-54.5 -9q-41 0 -66.5 18.5t-25.5 24.5q-2 31 -7 103.5t-12 165t-15.5 193.5t-14.5 189t-10 152.5t-4 83.5z" />
<glyph unicode="&#x414;" horiz-adv-x="1005" d="M33 106q29 16 51 33q20 14 39.5 29.5t30.5 30.5l27.5 38.5t39 68.5t43 109.5t39.5 159.5q16 80 20.5 150t6.5 123q0 61 -2 113l460 57l37 -862l148 -4l-6 -279l-136 -2l-6 135l-659 4l4 -121l-135 -4zM272 143l394 17l-50 696l-133 -20q-2 -33 -6 -78q-6 -76 -31 -230 q-12 -78 -41.5 -146.5t-58.5 -121.5q-35 -63 -74 -117z" />
<glyph unicode="&#x415;" horiz-adv-x="940" d="M61 545l127 26q-8 68 -16 129.5t-14 109.5t-9.5 78t-3.5 34q47 18 93.5 32.5t83 23.5t58.5 13l21 4q66 10 133.5 16.5t165.5 10.5q14 -47 14.5 -74.5t-3.5 -41t-11 -16.5l-8 -3q-84 -14 -163.5 -31.5t-190.5 -46.5l20 -197q57 12 89 18.5t60 10.5t60.5 7t94.5 14l6 -162 q-35 -6 -57.5 -13.5t-51.5 -15.5t-71 -18.5t-113 -22.5l18 -211l123 4q23 2 36 3t17 1l45 9q25 4 53.5 10t56.5 12t50.5 12.5t36.5 10.5q2 -10 5 -38t7 -87q-12 -16 -58 -34t-97 -32q-41 -8 -71 -16t-72 -16.5t-104.5 -16.5t-166.5 -16l-31 254l-10 86q-4 35 -129 14z" />
<glyph unicode="&#x416;" horiz-adv-x="1355" d="M70 223q80 72 147.5 126t120.5 95t92 71t62 52q-8 12 -47 54.5t-89.5 95.5t-101.5 106.5t-86 87.5q-29 33 -34 38t-1 14q8 12 52 41.5t116 87.5q66 -88 112 -155t77.5 -114t50 -76.5t30.5 -44.5q10 -10 18.5 -7t10.5 20l14 364q43 33 99.5 50.5t103.5 -5.5l-47 -397 q-2 -25 10.5 -25t18.5 9q8 6 25.5 22.5t51 50t88 86t134.5 129.5q143 -117 125 -135q-23 -29 -76 -75t-109.5 -95t-106.5 -93t-67 -69q31 -39 142.5 -138t289.5 -294q0 -10 -7 -20t-15 -21q-8 -10 -21 -22q-16 -14 -40.5 -31.5t-48 -33t-42 -23.5t-22.5 -4 q-10 12 -26.5 33.5t-51.5 68.5t-97.5 128t-166.5 210l-4 -389q0 -8 -2 -16q-4 -14 -23 -21q-29 -8 -77 -8t-81 4q-16 2 -20 20q-2 8 0 19l27 422q-90 -90 -148.5 -145.5t-94.5 -90.5t-54.5 -53t-30.5 -33q-4 -4 -18.5 -2t-34 9.5t-40 18.5t-38.5 27q-14 12 -25 27 q-10 10 -17 24.5t-7 24.5z" />
<glyph unicode="&#x417;" horiz-adv-x="774" d="M72 874q84 59 153.5 83t147.5 26q76 2 141.5 -34t99.5 -130q12 -33 14.5 -68.5t-4 -69.5t-20.5 -62.5t-35 -45.5q-23 -16 -15.5 -20t30 -13.5t55.5 -32t63 -75.5q20 -37 30.5 -102.5t-12 -135t-90 -129t-200.5 -81.5q-53 -10 -97 -6t-81 15t-67.5 28.5t-57.5 37.5 q-8 6 -5 32t12 55.5t20.5 52t21.5 20.5q33 -25 73 -34t75 -11q41 -2 82 2q82 16 112.5 53t34.5 66q2 27 -6 49.5t-20.5 40.5t-27 30.5t-26.5 18.5q-25 10 -50.5 12.5t-48 0t-36.5 -3.5t-14 6l-48 141q59 0 101.5 17.5t68 40t36 48t5.5 41.5q-16 63 -114.5 72.5t-243.5 -51.5 z" />
<glyph unicode="&#x418;" horiz-adv-x="868" d="M86 8q10 182 19.5 321.5t15.5 243t10 176t8 119.5q8 113 11 131q0 6 19 9.5t45 2.5t51.5 -5.5t39.5 -10.5q29 -16 27 -54t-6 -62q-6 -66 -15 -129q-6 -53 -13 -110.5t-11 -96.5q12 4 45 37.5t77 82t95 102.5t100 101t91 79t69 34q14 0 24 -6q10 -4 17.5 -15.5t5.5 -27.5 l-33 -826q0 -27 -10 -43t-23 -26q-14 -12 -32 -19q-12 -2 -25 -4q-10 -2 -21.5 -2t-21.5 4l-31 639q-14 -16 -46.5 -49t-73.5 -71.5t-84 -81.5t-80 -81t-60.5 -69t-25.5 -45q-6 -53 -17 -98q-6 -23 -10 -43q-4 -25 -9 -54.5t-40 -48.5q-8 -4 -21 -6q-25 -4 -61 2z" />
<glyph unicode="&#x419;" horiz-adv-x="886" d="M86 8q10 182 19.5 321.5t15.5 243t10 176t8 119.5q8 113 11 131q0 6 19 9.5t45 2.5t51.5 -5.5t39.5 -10.5q29 -16 27 -54t-6 -62q-6 -66 -15 -129q-6 -53 -13 -110.5t-11 -96.5q12 4 45 37.5t77 82t95 102.5t100 101t91 79t69 34q14 0 24 -6q10 -4 17.5 -15.5t5.5 -27.5 l-33 -826q0 -27 -10 -43t-23 -26q-14 -12 -32 -19q-12 -2 -25 -4q-10 -2 -21.5 -2t-21.5 4l-31 639q-14 -16 -46.5 -49t-73.5 -71.5t-84 -81.5t-80 -81t-60.5 -69t-25.5 -45q-6 -53 -17 -98q-6 -23 -10 -43q-4 -25 -9 -54.5t-40 -48.5q-8 -4 -21 -6q-25 -4 -61 2zM225 1239 q-4 6 5.5 32.5t23.5 55.5q17 35 37 74q23 -35 53 -66q27 -27 61.5 -50t79.5 -34q43 -10 95.5 -5t99.5 14q53 8 108 24l17 -78q-53 -25 -115 -47q-53 -18 -120.5 -33.5t-141.5 -13.5q-53 0 -88 11.5t-57.5 29.5t-36 41t-21.5 45z" />
<glyph unicode="&#x41a;" horiz-adv-x="962" d="M113 1061q47 18 70.5 26.5t35.5 10.5t19.5 0t21.5 -2q33 -4 60.5 -9.5t27.5 -13.5v-53v-76t2 -83t5 -68.5t7 -32.5q12 -10 23.5 -3t17.5 13q8 10 23.5 28.5t44.5 53.5t75 92t118 148q76 -53 108.5 -81t34.5 -36q4 -8 0 -13.5t-31 -33.5l-79 -79t-91 -94t-72.5 -82 t-23.5 -46q12 -18 34.5 -45t62.5 -72t104.5 -116.5t162.5 -178.5q0 -10 -7 -23.5t-17 -23.5q-10 -12 -23 -25q-18 -16 -38.5 -27.5t-39 -18.5t-31.5 -9t-18 2q-12 14 -31.5 38t-58.5 71t-100 122.5t-158 194.5l19 -436q-6 -6 -18.5 -10t-22.5 -7q-14 -2 -29 -2q-66 6 -94 23 z" />
<glyph unicode="&#x41b;" horiz-adv-x="952" d="M0 27q59 49 115 114q47 53 98 129t86 168q29 82 49.5 169t30.5 159q12 84 20 164l471 41l21 -965l-182 -26l-41 806l-113 15q-10 -72 -20 -148q-10 -66 -24.5 -142.5t-31.5 -145.5q-31 -119 -78 -198t-92 -126q-53 -55 -108 -86q-29 -4 -56 -4q-23 0 -47 4t-43 16 q-18 10 -29.5 20.5t-17.5 18.5q-8 8 -8 17z" />
<glyph unicode="&#x41c;" horiz-adv-x="1064" d="M76 115l190 929q43 4 72 -10q16 -6 24.5 -9t12.5 -5t8 -7t10 -14q20 -23 46 -62.5t42 -70.5l82 -151l45 45q14 14 42 42.5t58.5 57.5t61.5 52.5t55 31.5l11 4q12 4 31.5 7t45 4.5t54.5 -3.5l6 -1009q-16 -23 -46 -31t-60.5 -8t-52.5 3l-21 3q0 12 -2.5 71.5t-6.5 138.5 t-9 168t-9 163.5t-7 124t-5 47.5q-8 -4 -43 -32t-75 -59.5t-75 -56t-43 -20.5t-21.5 32.5t-27.5 64.5t-27.5 69.5t-21.5 50.5q-10 14 -18.5 38.5t-18.5 24.5q-6 -2 -12 -17t-15 -38q-2 -8 -15 -56t-31.5 -117t-41 -146.5t-42 -143t-35 -109.5t-19.5 -44q-20 6 -44 18t-52 29 z" />
<glyph unicode="&#x41d;" horiz-adv-x="811" d="M102 1104q72 -6 112 -16.5t58.5 -20.5t22.5 -17l4 -6q0 -2 1 -20t1 -90q0 -35 -1 -84t-3 -115l205 -43l14 414q41 -4 67.5 -5t48 -5t42 -13.5t51.5 -25.5l-33 -1022q-12 -6 -33.5 -8t-35.5 -2h-15q-20 2 -40.5 8t-37 13t-26.5 14.5t-10 11.5v55q0 41 2 126t4 239l-213 49 l-11 -482l-129 58z" />
<glyph unicode="&#x41e;" horiz-adv-x="811" d="M98 455q-47 274 97 432q23 25 51 43q23 16 55.5 28.5t69.5 10.5q78 10 159.5 -27t128.5 -123q39 -70 58.5 -164t11.5 -200q-2 -43 -19.5 -97.5t-48 -104.5t-76.5 -86t-104 -42q-82 -8 -147.5 16.5t-113.5 71.5t-78.5 110.5t-43.5 131.5zM283 555q0 -86 39.5 -145.5 t78.5 -75.5q35 -14 73 -11t65 19q14 8 30.5 28.5t28.5 54.5t17.5 79t-5.5 102q-16 76 -40.5 110t-49.5 48q-23 14 -58.5 18t-70.5 -10q-53 -31 -82.5 -77t-25.5 -140z" />
<glyph unicode="&#x41f;" horiz-adv-x="1036" d="M21.5 901q1.5 8 1.5 19q2 14 6 26t8 25q117 -12 212 -19.5t165 -11.5q53 -2 85.5 -3t58.5 -2t50.5 -1h65.5h233l31 -152q-43 -4 -89 -7t-73 -3h-49l6 -2q2 -55 5 -112.5t5 -104.5l7 -78q2 -31 15 -153.5t52 -339.5q-25 -10 -39 -13.5t-26 -3.5q-10 -2 -36 19.5t-44 56.5 q-16 31 -27.5 56.5t-22 52t-18.5 57.5t-18 74q-10 41 -18.5 121.5t-10.5 203.5q0 53 3 98.5t7 67.5q-53 0 -104 6q-16 2 -44 4t-48 6q-2 -18 -7.5 -66t-12.5 -111.5t-15 -135.5t-19.5 -138.5t-22.5 -121.5t-24 -86q-35 -66 -67.5 -98.5t-85.5 -14.5l90 785h106 q-63 14 -125.5 29.5t-99.5 25.5q-29 8 -43 15.5t-19.5 14.5t-4 15z" />
<glyph unicode="&#x420;" horiz-adv-x="763" d="M49 1073q90 23 141 29q31 4 54 6q80 6 156.5 -5t139 -50t105.5 -109t55 -180q10 -92 -8 -158.5t-50 -111.5t-68.5 -72t-61.5 -39q-102 -35 -178 -31l24 -409l-139 10zM283 901l39 -405q39 4 61.5 8t44.5 10q25 8 60 36t51 85q20 74 4.5 138.5t-39.5 92.5q-27 33 -65 46.5 t-72.5 13.5t-59 -8.5t-24.5 -16.5z" />
<glyph unicode="&#x421;" horiz-adv-x="813" d="M39 565q2 68 18.5 125.5t42 105.5t58 83.5t67.5 60.5q35 20 67 34.5t60 22.5q59 16 140 17.5t176 -35.5q6 -29 8 -48.5t2 -33.5q0 -17 -2 -27q-8 -35 -18.5 -52t-39.5 -46q-12 4 -34.5 7t-44.5 5q-27 2 -58 4q-80 10 -137 -22.5t-94 -89.5q-41 -63 -41 -152 q0 -39 8 -75.5t23 -61.5q14 -25 36.5 -50.5t50 -44t62.5 -24.5t78 6q33 10 63 31q27 16 54.5 45t48.5 74l151 -51q0 -29 -13 -58.5t-31.5 -57.5t-37 -50.5t-30.5 -36.5q-14 -18 -52 -42t-79 -36q-39 -12 -76 -15t-68 -1q-41 4 -109.5 28.5t-121.5 77.5q-43 43 -68.5 98.5 t-40 109.5t-17.5 101.5t-1 73.5z" />
<glyph unicode="&#x422;" horiz-adv-x="860" d="M31 838q0 16 3 36.5t13 40.5q217 8 358.5 13.5t225.5 8.5t122 4t50 1h10q10 0 14 -10t4 -25.5t-4 -33t-8 -31.5q-6 -20 -7 -22.5t-13 -6.5q-10 -4 -68.5 -16.5t-187.5 -32.5l12 -854l-135 37l-62 794q-117 -16 -176 -24t-90 -10q-23 0 -39 28.5t-20 61.5q-2 20 -2 41z " />
<glyph unicode="&#x423;" horiz-adv-x="817" d="M88 127q16 0 66.5 5t126.5 56q29 20 57 50q25 23 53.5 57.5t50.5 77.5q-41 -10 -75.5 -6t-61.5 14q-31 10 -55 29q-35 25 -66.5 71.5t-48.5 106.5q-16 59 -24.5 167.5t6.5 299.5q2 18 40 26.5t83 8.5t81.5 -8.5t34.5 -22.5q-16 -154 -12 -250t14 -147q12 -51 32 -79 t59 -38q12 -6 28 0q12 4 29.5 19.5t36.5 51.5q18 35 39.5 109t40.5 145q23 84 45 183h108q-23 -127 -48.5 -246t-64 -231.5t-96 -218t-139.5 -203.5q-49 -59 -100.5 -95t-96.5 -53.5t-79.5 -21.5t-49.5 -2z" />
<glyph unicode="&#x424;" horiz-adv-x="950" d="M82 569q0 74 13.5 161t56.5 163q18 -2 34.5 -2h32.5h34t-3 -29q-4 -18 -8 -47t-7.5 -61.5t-6.5 -64.5t-3 -58q0 -57 9.5 -128t35.5 -124q12 -27 35 -56.5t64 -39.5v69.5t2 106t7 127t16.5 131t29.5 118t47 87.5q29 37 81 64.5t105 21.5q37 -6 69 -17.5t58.5 -32t48 -52.5 t37.5 -79l7 -24q6 -20 9 -46t5 -51.5t2 -48t-2 -36.5q0 -10 -1 -24.5t-3 -31.5q-2 -33 -34 -116.5t-108 -182.5q-41 -51 -98 -89t-123 -54q-2 -29 -1 -67t1 -42q2 -12 3 -39.5t3 -61.5t3.5 -66.5t1.5 -57.5q0 -35 -5 -35q-33 -8 -60.5 -5t-48 12.5t-31.5 20.5t-11 17t-3 45 t-6 89.5t-5.5 101.5t-2.5 80q-66 16 -112.5 51t-78.5 77t-49.5 84t-23.5 72q-8 47 -12 90t-4 80zM528 301q37 16 67.5 51.5t59.5 96.5q27 53 37 106t11.5 97t-3 75t-6.5 41l-16 39q-10 27 -24.5 37t-27 11t-21.5 -3l-9 -4q-23 -12 -36 -63.5t-19 -119t-8.5 -143.5t-2.5 -137 v-46.5t-2 -37.5z" />
<glyph unicode="&#x425;" horiz-adv-x="851" d="M25 194.5q-2 6.5 0 10.5q4 8 18 30.5t48 69.5t89.5 124t143.5 194l-177 358q45 27 70 38t37 11t20.5 -11t22.5 -26q20 -27 55 -84t90 -164q49 57 84 96.5t58.5 64t39 37.5t25.5 24q27 18 50.5 27.5t43.5 4.5q20 -2 43 -7t76 -25q-35 -39 -93 -102.5t-113.5 -126 t-94.5 -108.5t-37 -52q2 -2 10.5 -17.5t32 -61.5t64.5 -132t106 -228q-14 -29 -67 -82q-2 -2 -33 -23.5t-72 -25.5q-37 109 -61.5 181.5t-41 117.5t-24.5 67.5t-12 31.5q-4 10 -12 17t-29 -22l-238 -327q-45 41 -70.5 65.5t-37.5 36.5t-14 18.5z" />
<glyph unicode="&#x426;" horiz-adv-x="892" d="M63 389v150q1 176 3 393q16 0 34 -2q16 -2 33 -5t33 -12q10 -6 16 -14t11 -14q4 -8 4 -17l45 -675q0 -12 4 -21q4 -8 7 -16.5t11 -12.5q10 -8 33 -8q8 0 20 2l170 33l95 727l116 10l-26 -723q53 0 94 -4q35 -4 64.5 -13t29.5 -32q-2 -31 -11 -83t-20 -103 q-12 -59 -30 -125l-101 26q0 27 -2 52q-2 20 -3 41.5t-5 31.5q-2 10 -24.5 17.5t-52 10.5t-61.5 3h-50q-20 -2 -79 -7t-124 -9q-76 -8 -166 -15q-12 12 -22 31q-10 16 -20.5 38t-16.5 54q-2 12 -4 54.5t-3.5 102.5t-1.5 134z" />
<glyph unicode="&#x427;" horiz-adv-x="751" d="M60 606q-5 92 1 174q6 96 25 195l201 -2q-12 -100 -19 -185q-4 -74 -3 -144.5t20 -100.5q14 -27 39.5 -37t53.5 -12t54.5 2t40.5 8l-10 452l137 60l80 -1022q-35 -23 -79 -10.5t-66 34.5q-20 18 -31.5 44t-16.5 49q-8 27 -8 55l-6 248q-12 -12 -36.5 -32t-53.5 -26 q-18 -6 -58 -12t-84 -1t-85 27.5t-62 73.5q-29 70 -34 162z" />
<glyph unicode="&#x428;" horiz-adv-x="1058" d="M70 549q-2 188 0 424q16 2 34 0q35 -4 66 -19q12 -6 18.5 -14t10.5 -14q4 -8 4 -17l45 -686q0 -12 4 -20t7 -16.5t11 -12.5q10 -8 33 -8q8 0 21 2l86 4l32 668l123 37l8 -697l152 6q29 195 51 355q10 68 20.5 135t20.5 123.5t19.5 96.5t15.5 54q8 16 26.5 22.5t39.5 6.5 q23 0 49 -4l-70 -750q-2 -20 -4 -43q-4 -18 -7 -39.5t-9 -38.5q-8 -23 -14.5 -32t-12.5 -13q-8 -6 -14 -4l-650 -86q-39 4 -59.5 11.5t-29.5 19.5t-12 29.5t-7 46.5q-2 12 -3 57t-2 110.5t-2 144.5t-1 161z" />
<glyph unicode="&#x429;" horiz-adv-x="1187" d="M70 938q16 2 34 0q16 -2 33 -5t33 -11q10 -6 16.5 -14.5t10.5 -14.5q4 -8 4 -16l94 -676q2 -14 4 -27q4 -27 16 -35q6 -4 24.5 -2t39.5 8q23 6 53 17l35 704l115 -8l14 -678l154 33q16 168 32 307q6 59 14.5 117.5t16.5 108t15.5 85t13.5 50.5q4 10 23.5 17t41.5 11 q25 4 54 6l-29 -684q59 4 104 -4q39 -6 68.5 -21t25.5 -46q-4 -37 -19 -96.5t-32 -116.5q-20 -68 -43 -140l-118 -16q8 49 14 90q4 35 4 70t-8 51q-10 18 -81 19.5t-163 -3.5q-47 -2 -127 -9t-160 -17q-94 -10 -196 -25q-20 18 -37 39q-14 16 -25.5 36.5t-13.5 39.5 q-2 12 -5 55t-7 105.5t-9.5 138.5t-9.5 154q-10 180 -24 403z" />
<glyph unicode="&#x42a;" horiz-adv-x="942" d="M31 905l8 127q96 8 166.5 8t118.5 -4q55 -4 94 -10l-19 -344q29 2 63 2h66.5t61 -2t45.5 -6q16 -4 58 -19.5t84 -53.5t74 -105.5t28 -178.5q-2 -49 -25 -101t-62.5 -97t-92 -78t-113.5 -45q-49 -8 -109 -6q-51 2 -119.5 12t-152.5 39l59 842zM381 211q55 -10 100.5 -11 t98.5 15q27 6 47 24.5t32.5 41t18.5 45t4 41.5q-2 45 -25.5 81.5t-83.5 63.5q-23 4 -49 8q-23 4 -55.5 5t-71.5 -1z" />
<glyph unicode="&#x42b;" horiz-adv-x="1130" d="M25 989q23 16 49 20.5t49 4.5q27 0 55 -4l31 -344q27 4 60.5 9t66.5 10t60.5 7t45.5 0t61.5 -11t90.5 -41t87 -94.5t52 -170.5q6 -49 -10 -104.5t-48 -106.5t-80 -91t-106 -61q-51 -12 -112 -20q-53 -6 -125 -5t-158 17l-61 842zM227 508l29 -313q57 0 102.5 4.5 t94.5 27.5q25 12 42 33t26 44.5t12.5 47t-1.5 39.5q-8 45 -37.5 79t-88.5 50q-25 2 -52 2q-25 0 -56.5 -3t-70.5 -11zM774 295q-2 53 0 110.5t9.5 117t15.5 114.5q20 127 51 264l160 -12q-16 -152 -25 -283q-4 -55 -6 -112.5t-2 -108.5t3 -92t9 -66q10 -35 30.5 -55 t43.5 -35q25 -16 57 -24q-14 -27 -26 -47q-12 -18 -25.5 -33t-30.5 -15q-25 0 -62.5 6.5t-75.5 26t-69.5 54t-44.5 94.5q-10 43 -12 96z" />
<glyph unicode="&#x42c;" horiz-adv-x="831" d="M80 991q23 16 49.5 20.5t48.5 4.5q27 0 55 -4l31 -344q27 6 60.5 11t65.5 9t60.5 6t47.5 0q16 -2 59 -11t90 -41t88 -94.5t53 -170.5q6 -49 -10 -104.5t-48 -105.5t-80 -90t-107 -61q-51 -14 -113 -22q-53 -6 -125 -5t-158 17l-59 842zM283 512l28 -315q57 0 101.5 4.5 t93.5 27.5q27 12 44 33t26.5 44.5t11.5 47t-2 39.5q-8 45 -37 79t-90 50q-25 2 -51 2q-51 0 -125 -12z" />
<glyph unicode="&#x42d;" horiz-adv-x="839" d="M51 979q76 10 144 18q59 6 119.5 9t97.5 -7q43 -12 96 -35.5t103.5 -68.5t91 -115.5t59.5 -177.5q16 -100 5 -181t-41 -144.5t-73 -111.5t-92 -83q-113 -82 -268 -119l-43 70q41 25 78 57q33 29 69.5 70t65.5 94q23 39 42 79t27.5 87t1 104.5t-35.5 132.5q-14 39 -39 66 t-53.5 45t-61.5 28.5t-65 14.5q-76 10 -162 -2zM219 578l273 49l2 -187l-261 -22z" />
<glyph unicode="&#x42e;" horiz-adv-x="1259" d="M111 16v1000q74 -10 113.5 -22.5t60.5 -22.5q23 -12 26 -25v-43q-2 -29 -4 -88t-10 -164l195 -28q31 84 75.5 135t95 77.5t101.5 34t92 2.5q39 -4 80 -17t79 -38.5t71 -61.5t53 -81q27 -59 38 -109.5t12 -98.5t-6 -96t-20 -102q-14 -63 -48 -117.5t-82 -93.5 t-106.5 -59.5t-119.5 -17.5q-84 2 -152.5 42.5t-114.5 103t-70 138.5t-19 148l6 49l-178 28l-37 -538zM664 366q6 -40 20 -72t32.5 -55.5t37.5 -33.5q35 -20 73.5 -22t67.5 12q14 6 34.5 24.5t39 51t30 77.5t9.5 107q-6 80 -26.5 118.5t-45.5 55.5q-20 18 -56 27.5t-75 -1.5 q-39 -12 -70 -39q-27 -23 -48 -62.5t-23 -104.5q-6 -43 0 -83z" />
<glyph unicode="&#x42f;" horiz-adv-x="860" d="M76.5 824q13.5 77 54.5 137q31 43 99.5 92t160.5 67q35 6 80 15q76 12 217 18l141 -1102q-59 -25 -86 -31q-16 -6 -28 -6q-12 2 -27 39q-12 31 -29.5 97.5t-40.5 195.5l-55 10t-39 6q-18 2 -30 5q-33 4 -44.5 -5.5t-21.5 -27.5q-6 -10 -31.5 -63.5t-55.5 -116 t-55.5 -115.5t-31.5 -62q-2 -2 -23 5q-16 4 -52 14t-101 33l190 409q-53 23 -85.5 58.5t-53.5 68.5q-23 37 -37 78q-29 104 -15.5 181zM269 812q1 -32 12 -73q12 -53 42 -88.5t93 -60.5q25 -8 53 -17q23 -6 53.5 -10t61.5 0l-82 449q-41 0 -72 -10.5t-53 -22.5 q-27 -14 -47 -33q-18 -16 -31.5 -35.5t-22 -43t-7.5 -55.5z" />
<glyph unicode="&#x430;" horiz-adv-x="792" d="M-25 633q66 72 126.5 116t107.5 68.5t77.5 33.5t35.5 11q12 2 37.5 3t57.5 -5t66.5 -20t67.5 -45q27 -41 52.5 -93.5t49 -135.5t48 -206.5t51.5 -306.5l-119 -53l-41 133q-53 -43 -104.5 -62.5t-96.5 -24.5t-80 -2t-51 7q-23 4 -58.5 32t-58.5 67q-20 39 -24 86t14 96 q23 37 49.5 69.5t64.5 58t90 45t126 30.5q-10 57 -21.5 79.5t-17.5 30.5q-6 10 -35 27.5t-82 3.5q-25 -6 -61.5 -26.5t-70.5 -43t-59.5 -41t-27.5 -20.5q-12 4 -36.5 23.5t-76.5 64.5zM324 231q0 -23 12 -43t47 -24q23 -2 49 6q23 6 54.5 18.5t70.5 40.5q-12 59 -22.5 89 t-21.5 40.5t-26.5 5t-40.5 -13.5q-31 -10 -47 -18q-8 -4 -21 -11.5t-25.5 -20.5t-20.5 -30.5t-8 -38.5z" />
<glyph unicode="&#x431;" horiz-adv-x="593" d="M63.5 246q2.5 45 14.5 84t37 63q41 41 89 54.5t101 9.5q6 0 -1 19.5t-19.5 49t-25.5 64.5t-19 65q-29 131 -18 213t40 136q10 18 31.5 44.5t57.5 53t85 49.5t115 35l49 -168q-59 -18 -103 -46t-89 -77q-51 -55 -63.5 -105.5t-1.5 -100.5t38 -102t53.5 -111.5t48 -128 t21.5 -150.5q0 -33 -12.5 -68t-35 -64.5t-55 -51t-73.5 -27.5q-23 -6 -50.5 -6t-57.5 9t-58.5 28.5t-50.5 52.5q-25 37 -37.5 84t-10 92zM199.5 256q-21.5 -37 7.5 -76q25 -35 66.5 -38t72.5 20q23 16 28 40.5t-1 49.5q-10 35 -37 53.5t-72 3.5q-43 -16 -64.5 -53z" />
<glyph unicode="&#x432;" horiz-adv-x="708" d="M75.5 642.5q6.5 127.5 28.5 221.5q23 98 46.5 151.5t42.5 86.5q20 35 66 52t89 3q43 -12 76 -46t47 -71q29 -72 31 -151.5t-33 -161.5q-18 -43 -51 -82t-68 -69.5t-66.5 -52t-50.5 -31.5q4 2 32 10t69 13t89 2t93 -28q66 -35 98.5 -90t44.5 -114q12 -66 -20.5 -129.5 t-75.5 -98.5q-20 -16 -53 -27.5t-72 -14.5t-79 4.5t-74 25.5q-35 18 -66 51q-27 29 -53.5 74t-42.5 115l-21 80q-33 150 -26.5 277.5zM203 660.5q0 -19.5 2 -36t4 -28.5t6 -10q2 2 20.5 29.5t39 67.5t38 85t19.5 86q4 35 0 66q-4 25 -15.5 47t-33.5 26q-25 -35 -39 -75 q-8 -23 -15 -44q-26 -104 -26 -180v-33.5zM266 335q-8 -42 15 -81q18 -35 55 -59.5t80 -14.5q20 6 34.5 21.5t22.5 35t8 41t-8 39.5q-12 31 -33.5 47.5t-45 23.5t-47 6t-42.5 -7q-31 -10 -39 -52z" />
<glyph unicode="&#x433;" horiz-adv-x="708" d="M29 657q14 6 48 20.5t79 30t96 28t100 18.5q57 6 101.5 -1.5t76 -21.5t49 -32.5t21.5 -36.5q10 -51 -2 -93.5t-37.5 -78t-61.5 -66.5t-71 -59q-35 -27 -62.5 -51.5t-46.5 -51.5q-47 -66 -28 -104q16 -29 69 -35q41 -2 85 14.5t84 39t71 47t47 36.5l47 -80 q-4 -12 -22.5 -44t-61.5 -66.5t-116.5 -62t-186.5 -34.5q-63 -4 -106 13h-2q-49 16 -78 45q-27 29 -32 62.5t-3 49.5q8 41 28.5 76t48 67.5t60.5 62.5t68 59l63 53q10 8 23.5 20.5t22 29.5t9.5 35.5t-12 39.5q-12 20 -43.5 27.5t-66.5 7.5t-67 -4.5t-44 -6.5 q-12 -4 -28.5 -9t-35 -10t-35 -10.5t-26.5 -7.5z" />
<glyph unicode="&#x434;" horiz-adv-x="731" d="M-213 -188l150 190q76 -78 147.5 -108.5t101.5 -32.5q16 -6 41 -6t48.5 6t45 16t31.5 27q16 20 31 51q12 27 24.5 66.5t18.5 97.5q-35 -8 -66.5 -8t-56 4t-39.5 9l-16 5q-41 14 -72 44t-48 68t-21.5 79.5t8.5 82.5q12 43 38.5 75t60.5 54.5t69.5 35t64.5 16.5q2 0 22.5 3 t57.5 3q18 0 36.5 -1t39.5 -3l41 180q27 10 45 15t31 7q14 2 22 -2q10 -10 12 -31.5t-6 -64.5q-39 -199 -60.5 -315.5t-31.5 -177.5q-6 -31 -9 -49.5t-4 -30t-3 -18.5t-4 -15q-2 -16 -12.5 -63.5t-26.5 -94.5q-14 -49 -35 -94t-47 -76q-53 -61 -114.5 -87.5t-108.5 -26.5 q-47 2 -76 5t-70 15q-72 31 -137.5 68t-122.5 82zM309 298q19 -32 39 -36q35 -10 63 1.5t38 27.5q10 18 14 54t8 54q2 8 -14.5 17.5t-41 11.5t-51 -8t-45.5 -41q-29 -49 -10 -81z" />
<glyph unicode="&#x435;" horiz-adv-x="643" d="M43 313q-8 53 0 108.5t32.5 103.5t65.5 86t97 57q59 23 122.5 11.5t114.5 -52.5q33 -27 58.5 -72t29.5 -98q6 -51 -8 -77t-25 -38q-10 -12 -55 -26.5t-104 -12.5l-17 2q-16 2 -39.5 8t-52.5 19.5t-55 36.5q-10 -16 -5 -41t9 -41q4 -14 26.5 -29.5t55.5 -26.5q27 -6 55 -6 q25 0 54.5 8.5t58.5 32.5l59 -112q-10 -8 -37.5 -28t-56.5 -28q-35 -10 -83 -14t-97 6q-25 4 -56.5 19.5t-61.5 43t-53.5 67.5t-31.5 93zM244 459.5q8 -25.5 53 -39.5q39 -12 72 -13.5t49 21.5q12 23 6 46.5t-21 39.5q-20 23 -46.5 29t-45.5 4q-18 -4 -36.5 -15.5 t-24.5 -21.5q-14 -25 -6 -50.5z" />
<glyph unicode="&#x436;" horiz-adv-x="1255" d="M39 711q45 2 92 0q41 -2 87 -9.5t87 -23.5q33 -12 64.5 -29.5t58.5 -44t46.5 -61.5t25.5 -84h51l29 356l114 -24l-4 -336l55 -2q18 100 72.5 150t106.5 75q39 20 88 27.5t92 9.5q51 2 102 -4l-22 -115q-57 -2 -111 -18q-45 -14 -89 -46.5t-64 -91.5q-18 -51 -16.5 -94 t17 -79t41 -65.5t54.5 -51.5q68 -53 168 -89l-29 -69q-104 6 -190 43q-37 14 -73 38.5t-66.5 59.5t-52 81t-30.5 105h-55l-4 -311q-4 -23 -12 -41q-10 -16 -26.5 -28.5t-47.5 -12.5q-29 0 -46 13.5t-26 29.5q-10 18 -12 41l25 305l-43 -2q-12 -53 -36 -96t-54.5 -75.5 t-66.5 -57.5t-71 -41q-82 -39 -182 -55l-18 90q33 12 69 28q31 14 66 35t67 49q16 14 32.5 40t28 57.5t13.5 70.5t-10 82q-16 55 -60.5 86t-91.5 47q-55 18 -121 23z" />
<glyph unicode="&#x437;" horiz-adv-x="696" d="M82 4q-6 6 0 31.5t18.5 53.5t26.5 50.5t23 20.5q25 -23 52 -32t52 -13q29 -4 57 0q68 6 94.5 31.5t26.5 48.5q0 18 -10 35.5t-27 29.5q-10 6 -25.5 9t-33 7.5t-33.5 14.5t-27 28l-26 97q49 -4 78.5 0t46.5 10q18 8 26 18q4 6 7 15q2 6 2 13t-4 11q-12 18 -33 29.5 t-41 15.5q-23 6 -49 9q-27 0 -54 -2q-51 -4 -100 -17l-33 137l-4 21q66 14 117 19t86 7q38 2 67 -2t59 -13t56.5 -26.5t47 -44t30.5 -65.5q14 -53 -6.5 -99t-59.5 -69q-18 -12 -10 -15t29.5 -12.5t50.5 -30t49 -65.5q14 -29 13.5 -82t-29.5 -106.5t-92.5 -95.5t-173.5 -50 q-90 -8 -146.5 17.5t-97.5 60.5z" />
<glyph unicode="&#x438;" horiz-adv-x="837" d="M29 483.5q-4 59.5 0 137.5l196 -15q0 -39 2 -49q4 -16 5 -20.5t4 -38.5q2 -25 7 -55.5t16 -61.5t30.5 -55.5t50.5 -36.5q45 -16 69.5 -2t34.5 26q25 29 23 63t-6 60q-6 41 -16.5 91.5t-24.5 109.5l160 10q23 -119 42 -183.5t27 -84.5q16 -29 55 -89.5t113 -133.5 q-16 -27 -43 -41q-25 -16 -33 -21.5t-30 -13.5q-35 -10 -65 -11t-40 11q-12 20 -35.5 54t-64.5 93q-23 -41 -51.5 -66.5t-57 -41t-54.5 -21.5t-42 -6h-24.5t-26.5 2q-27 2 -76 36t-84 91q-16 33 -28.5 71t-20.5 85t-12 106.5z" />
<glyph unicode="&#x439;" horiz-adv-x="837" d="M29 417.5q-4 59.5 0 137.5l196 -14q0 -39 2 -49q4 -16 5 -20.5t4 -39.5q2 -25 7 -55.5t16 -61t30.5 -55t50.5 -37.5q45 -16 69.5 -1.5t34.5 26.5q25 29 23 62.5t-6 60.5q-6 41 -16.5 91t-24.5 109l160 11q23 -119 42 -183.5t27 -85.5q16 -29 55 -89t113 -134 q-16 -27 -43 -41q-25 -16 -33 -21t-30 -14q-35 -10 -65 -11t-40 11q-12 20 -35.5 54t-64.5 94q-23 -41 -51.5 -66.5t-57 -41t-54.5 -21.5t-42 -6h-24.5t-26.5 2q-27 2 -76 35.5t-84 91.5q-16 33 -28.5 70.5t-20.5 84.5t-12 106.5zM51 821q-4 6 5.5 33t23.5 55q17 35 37 74 q23 -35 53 -65q27 -27 61.5 -50.5t79.5 -33.5q43 -10 95.5 -5t99.5 13q53 8 108 24l17 -78q-53 -25 -115 -47q-53 -18 -120.5 -33.5t-141.5 -13.5q-53 0 -88 11.5t-57.5 30t-36 41t-21.5 44.5z" />
<glyph unicode="&#x43a;" horiz-adv-x="753" d="M78 698v7q78 37 103.5 44t35.5 7q18 2 35 -23q8 -23 15 -71t16 -146l186 234l98 -74l-159 -258l313 -236l-131 -104l-217 162l-58 34l-6 -229q-33 -23 -58.5 -29t-53.5 17q-29 164 -49.5 277.5t-34 188t-20.5 115.5t-11 61.5t-4 22.5z" />
<glyph unicode="&#x43b;" horiz-adv-x="813" d="M-12 -55l8 205q113 12 184.5 73.5t114.5 144.5t64.5 173t33.5 159l10 62l342 -8l21 -740q-12 -16 -25 -26q-12 -10 -27.5 -15.5t-35.5 0.5q-29 8 -44.5 20.5t-25.5 26.5t-14 33l-14 568l-66 12l-10 -70q-23 -123 -58.5 -233.5t-96 -194.5t-148.5 -134t-213 -56z" />
<glyph unicode="&#x43c;" horiz-adv-x="933" d="M53 8l170 801q35 4 64 -6l28 -12q6 -4 19.5 -25t28 -51.5t29 -64.5t26.5 -62q8 -23 18 -45q10 -20 22.5 -47t28.5 -56q-2 2 9.5 16.5t23.5 31t23.5 29.5t9.5 11q-16 -20 -1 4.5t46 64.5t65.5 79t57.5 47q16 4 37 8q16 4 38.5 5t49.5 -3l14 -729q-16 -20 -41.5 -26.5 t-52.5 -6.5q-31 0 -66 4q-2 12 -5 52.5t-7 93.5t-9 111.5t-10 107.5t-8.5 81t-5.5 30q-16 -25 -46.5 -73t-62.5 -97.5t-58.5 -85t-32.5 -31.5t-18.5 30.5t-26 59.5t-24.5 64.5t-17 46.5q-16 41 -29.5 80.5t-22.5 37.5q-2 0 -9 -16t-14 -37.5t-15.5 -43t-10.5 -32.5 q-2 -6 -11 -37.5t-22.5 -74.5t-27.5 -91.5t-27.5 -89.5t-25 -67.5t-15.5 -26.5q-8 0 -18 6q-10 4 -26.5 11.5t-41.5 23.5z" />
<glyph unicode="&#x43d;" horiz-adv-x="698" d="M55 655q61 -4 96 -10t52 -12q20 -8 24 -15q2 2 2 -16v-51t-2 -100l179 -5l18 191q35 25 87 23.5t87 -15.5q-8 -55 -14 -110q-4 -47 -8.5 -102.5t-2.5 -102.5q4 -72 20.5 -126t39.5 -91q23 -43 55 -74q-16 -29 -54 -41t-63 -6t-58.5 28.5t-55.5 63.5q-25 45 -38 111.5 t-16 140.5l-182 -14l-16 -322l-113 -16z" />
<glyph unicode="&#x43e;" horiz-adv-x="679" d="M29 367q-2 106 32.5 168.5t79.5 95.5t88 43t60 12q31 4 66.5 -2t72.5 -22.5t69.5 -45t57.5 -67.5q25 -41 41 -110.5t9 -142.5t-48 -138.5t-129 -98.5t-160.5 -11t-126 73t-83 118.5t-29.5 127.5zM174 442q0 -29 4 -51t8 -49q6 -27 29 -56.5t47 -43.5q27 -14 49.5 -16.5 t34.5 -0.5q10 2 28.5 15.5t34 39t22.5 62.5t-3 86q-8 49 -32.5 75.5t-51.5 40t-49.5 15.5t-28.5 2q-25 -2 -49 -20q-25 -12 -33 -40t-10 -59z" />
<glyph unicode="&#x43f;" horiz-adv-x="698" d="M37 633l176 65l27 -159q41 41 80.5 61.5t74.5 28.5t62.5 6t44.5 -8q25 -6 46 -23.5t46 -71.5q25 -51 44 -148t13 -259l-108 -41q-8 57 -11.5 77.5t-4.5 28t-2 12.5t-7 29q-4 20 -13 49t-23.5 57t-33 49.5t-40.5 29.5q-31 12 -61 6t-53.5 -20.5t-39.5 -32t-21 -29.5 q-4 -16 -6 -37.5t-3 -59.5t-4 -96.5t-5 -146.5l-104 6z" />
<glyph unicode="&#x440;" horiz-adv-x="718" d="M84 -399l22 1134l209 -2l-12 -131q25 23 53.5 35t53.5 18q29 8 59 9q80 -2 134.5 -57t70.5 -118q14 -47 13 -100t-18.5 -102t-52 -90t-86.5 -64q-66 -23 -124 -22.5t-119 41.5l-80 -545zM372 453.5q-7 -31.5 1 -76.5q4 -18 15 -38t28.5 -34t41 -20t52.5 2q31 8 46 26.5 t21.5 43t5.5 50t-5 48.5q-2 12 -10.5 27.5t-23 29.5t-36 22.5t-49.5 4.5q-16 0 -34.5 -8.5t-32 -27t-20.5 -50z" />
<glyph unicode="&#x441;" horiz-adv-x="593" d="M41 371q2 98 60.5 165.5t146.5 90.5l20 3q21 3 51.5 1t68.5 -12.5t77 -36.5l-53 -125q-39 18 -71 23t-54 3q-27 -2 -49 -12q-27 -14 -38.5 -38.5t-11.5 -51.5t6.5 -51.5t14.5 -36.5q10 -12 40 -40t73 -32q27 0 57 8q27 8 61.5 26.5t75.5 57.5l62 -61q-12 -35 -34 -62.5 t-45.5 -49t-47 -36t-37.5 -20.5q-27 -10 -50.5 -16.5t-74.5 -6.5q-27 0 -54.5 4.5t-48.5 16.5q-78 45 -112.5 116.5t-32.5 172.5z" />
<glyph unicode="&#x442;" horiz-adv-x="1021" d="M43 664q39 20 68.5 23t49 -1t31.5 -12l11 -8q8 -6 16 -25.5t15.5 -38t14.5 -30t11 0.5q12 29 44 54.5t75 34.5q20 4 52 2t61 -21q45 -37 63 -76q12 -8 21.5 -3t13.5 9q6 6 29.5 35t68.5 41q29 8 63.5 6t65.5 -20t58.5 -61.5t42.5 -75.5q14 -41 25 -85t17.5 -98.5 t8.5 -123t-2 -158.5l-144 -4q4 68 -1 124t-14 100t-20.5 75.5t-19.5 50.5l-18 37q-6 12 -32 23.5t-54 2.5q-29 -10 -40.5 -25.5t-19.5 -43.5q-2 -2 -2 -37v-70q0 -37 1 -66.5t3 -29.5l-57 -6h-19.5t-19.5 -2q-18 -4 -25 49q-6 47 -18 108q-10 57 -15.5 75t-5.5 20 q-8 20 -26.5 31.5t-38.5 9.5q-41 -4 -60.5 -30t-23.5 -48q-8 -47 -4 -113.5t11 -128t11 -106.5t-4 -47q-29 -6 -60.5 -12.5t-66.5 -10.5q-6 35 -15 83t-24.5 127t-40 197.5t-61.5 297.5z" />
<glyph unicode="&#x443;" horiz-adv-x="667" d="M-129 -246q-4 66 12 119q49 -39 94 -45q20 -4 30.5 -6t15 -2h8.5h12q27 0 67 14t95 57q29 23 57 56q25 29 51.5 67.5t48.5 87.5q-41 -10 -74.5 -4t-58.5 17q-29 12 -53 30q-16 14 -33.5 37t-31 49.5t-22.5 53t-9 49.5q-2 20 -4 61q-2 35 -3 94.5t-3 153.5 q39 16 68.5 23.5t55 6.5t50 -7.5t57.5 -16.5q-4 -72 -5 -118t-1 -70q0 -31 2 -43q4 -31 18.5 -68t53.5 -49q14 -6 26 -4q10 0 22.5 6t18.5 23l111 278l71 -33q-35 -129 -60.5 -212t-41.5 -130q-14 -47 -21.5 -65.5t-13.5 -34.5q-16 -39 -44.5 -104.5t-96.5 -163.5 q-47 -70 -106.5 -117t-115 -74.5t-99.5 -38t-58 -8.5t-29.5 15.5t-28 33t-21.5 42t-11 40.5z" />
<glyph unicode="&#x444;" horiz-adv-x="1028" d="M25 358q2 27 13 69t38.5 84t75 74.5t120.5 43.5q33 2 70 -4q31 -4 69 -19.5t76 -46.5l25 162l123 35q-2 -35 -8 -87.5t-15 -113.5q33 23 65 34t58 15q31 6 58 4q86 -10 143 -65.5t61 -147.5q4 -96 -26.5 -167.5t-104.5 -125.5q-41 -29 -99 -36t-97 2q-18 4 -39 12 q-16 6 -39 17.5t-43 29.5l-51 -348l100 10l64 -78q-59 -76 -106.5 -112.5t-80.5 -53.5q-37 -18 -67 -18q-37 -8 -54.5 9.5t-23.5 44t-5 52t3 35.5q10 61 20 113.5t20.5 108t22.5 121t29 155.5q-4 -23 -24.5 -39t-53.5 -25.5t-73 -10.5t-79 7q-49 10 -82.5 43t-53 73t-27 80 t-2.5 64zM228.5 291q17.5 -35 43.5 -47q12 -6 31 -4t39 11t37 26.5t27 44.5q20 55 12 88.5t-25 50.5q-10 10 -32.5 16t-57.5 -8q-45 -16 -72 -90q-20 -53 -2.5 -88zM631 338q-8 -33 2 -52.5t24 -31.5q16 -14 39 -21q29 -2 48.5 5.5t34 17.5t22.5 23.5t14 25.5q6 14 10 35.5 t2 43.5t-14 39t-37 23q-49 10 -90 -16.5t-55 -91.5z" />
<glyph unicode="&#x445;" horiz-adv-x="729" d="M37 78q27 41 46 70.5t32 46.5q27 35 55.5 69.5t81.5 97.5q6 14 -2 23q-6 10 -9 13t-28 30q-16 18 -35.5 43t-38 47.5t-31 39.5t-14.5 24q-4 20 -4 30q0 16 19 29q37 33 86 68q35 -31 51 -47.5t23 -25.5t12.5 -15.5t15.5 -18.5q23 -27 50.5 -56.5t37.5 -35.5 q6 -2 27.5 23.5t51.5 57.5t59.5 59.5t51.5 29.5q39 -4 68 -25q-31 -41 -42 -55t-15 -19.5t-7.5 -7.5t-17.5 -18q-12 -12 -27.5 -29.5t-30 -35t-23.5 -31t-9 -17.5q0 -25 74 -104q35 -35 69.5 -72t69.5 -76q-53 -45 -84 -66.5t-39 -25.5q-8 -2 -21.5 -2t-27.5 19 q-16 18 -53 57t-115 119q-61 -72 -97 -112t-54.5 -60.5t-24.5 -27.5t-8 -11l-17.5 -17.5t-26 -21.5t-29.5 -14t-30 4q-18 20 -20 47z" />
<glyph unicode="&#x446;" horiz-adv-x="876" d="M43 324q-2 106 16 229l162 35q-4 -111 2 -197q2 -37 6 -72.5t10.5 -64.5t15.5 -47.5t21 -18.5q27 -2 48.5 12.5t39 41t32 60.5t24.5 71q25 84 39 194l205 6q-14 -113 -23 -206q-4 -41 -6 -80t-2 -72t4 -56.5t12 -31.5q16 -16 52 -21.5t73 -5.5q43 0 92 6l-94 -284 l-141 -10l4 8q4 6 7 17t11 34q12 33 17.5 54.5t9.5 35.5q4 16 4 27q-12 -6 -27 -11q-12 -4 -31.5 -6t-43.5 -2q-49 0 -68.5 32t-28.5 67q-10 37 -10 47q-2 8 0 12l-18 -86q-39 -31 -86 -45q-41 -12 -95.5 -11t-119.5 35q-33 18 -54.5 50t-34 74t-18.5 88.5t-6 91.5z" />
<glyph unicode="&#x447;" d="M33.5 405.5q-0.5 67.5 7.5 129.5q8 72 29 145l196 4q-14 -74 -22 -137q-6 -53 -7 -106.5t15 -75.5q12 -18 37.5 -25.5t53.5 -7.5t54.5 3t40.5 7l2 338l138 47l51 -729q-35 -18 -78 -10t-66 22q-20 12 -30.5 31.5t-14.5 36.5q-6 20 -6 41l2 155q-14 -10 -38.5 -24 t-53.5 -21q-18 -4 -58 -10t-84 -3t-83 18.5t-58 52.5q-27 51 -27.5 118.5z" />
<glyph unicode="&#x448;" horiz-adv-x="1204" d="M49 393q6 117 55 289l154 -29q-27 -139 -27 -229t15.5 -145.5t39 -81t44.5 -33.5q23 -10 60.5 -4t84.5 41q-20 74 -17 155.5t13 153.5q12 82 33 164l139 4q-18 -133 -20 -240q0 -45 2 -89t9 -77.5t21.5 -53t36.5 -19.5q35 0 61.5 21.5t46 56t33 78.5t23.5 89 q23 106 25 242l166 31q-16 -123 -23 -225q-2 -43 -2 -87.5t5 -83t15.5 -67.5t26.5 -43t37.5 -17.5t40.5 -0.5q23 2 41 8l-33 -127q-27 -16 -53 -27q-23 -10 -50.5 -16t-52.5 0q-49 10 -71.5 29.5t-32.5 54.5q-6 12 -6 18l-8 -59q-39 -39 -86 -60q-41 -16 -95.5 -18 t-117.5 39q-39 25 -64 63q-18 -31 -43.5 -52t-48.5 -36q-27 -16 -55 -24q-18 -6 -44 -6t-54.5 4t-54 13t-44.5 21q-31 23 -63.5 65t-50 117.5t-11.5 192.5z" />
<glyph unicode="&#x449;" horiz-adv-x="1236" d="M42 328.5q-3 111.5 32 283.5l153 -8q-25 -160 -17.5 -251t28 -135t44 -55t31.5 -13q12 -6 39 -5.5t78 29.5q-14 66 -11 139.5t13 139.5q10 76 29 149l143 2q-20 -117 -22 -209q-2 -39 1 -76.5t11 -68.5t24.5 -50.5t40.5 -21.5q31 -4 54.5 13.5t42 48t32 69.5t23.5 82 q23 98 31 225l164 27q-12 -125 -17 -227q-2 -43 -2 -87t3 -81t10.5 -64t19.5 -37q16 -16 49 -13t66 13q37 10 82 33l-46 -327l-100 -7l4 177q-2 -2 -15 -10.5t-61 -12.5q-51 -2 -90 22.5t-49 55.5q-6 16 -8 27.5t-4 19.5t0 12l-17 -86q-35 -31 -79 -49q-39 -16 -94.5 -18 t-122.5 28q-27 14 -54 43q-18 -23 -40.5 -39t-41.5 -26q-23 -12 -45 -19q-18 -6 -44.5 -7t-54.5 3t-54.5 13.5t-42.5 23.5t-45 46t-48.5 99.5t-22.5 179z" />
<glyph unicode="&#x44a;" horiz-adv-x="890" d="M35 842q18 -4 43 -8q23 -4 54.5 -7.5t74.5 -5.5q41 -4 82 -3t76 5q37 4 73 8l15 -253q41 16 73.5 22t55.5 10q27 4 47 2q18 0 49 -7t63.5 -27.5t58.5 -55.5t36 -92q12 -86 -10.5 -166t-94.5 -137q-35 -25 -78 -43q-37 -16 -88 -26.5t-112 -2.5l-9 -41l-104 -14l-59 696 l-54 -6q-37 -4 -66.5 -4t-51.5 2q-25 2 -43 4zM455 188q29 -4 51 -1t39 8q21 6 37 12q18 8 36.5 27.5t31 45t12.5 56.5t-21 61q-16 23 -48 31t-48 8q-12 0 -27 -2q-25 -4 -63 -20v-226z" />
<glyph unicode="&#x44b;" horiz-adv-x="1046" d="M61 750l166 45l15 -256q41 16 73.5 23t55.5 11q25 4 45 2q18 -2 50 -9t63.5 -27.5t58.5 -55.5t37 -92q12 -84 -11.5 -165t-95.5 -136q-33 -25 -76 -43q-37 -16 -88 -26.5t-112 -2.5l-9 -41l-104 -14zM242 152q29 -4 52 -1t40 7q21 6 37 12q18 8 36.5 27.5t31 45 t12.5 55.5t-21 60q-16 25 -48 32t-48 9q-14 0 -29 -2q-12 -2 -28.5 -7t-34.5 -13v-225zM717 314q6 92 20 175q16 98 41 203l131 -10q-10 -117 -18 -215q-6 -86 -7 -169t11 -120q8 -27 25.5 -42t33.5 -25q20 -10 43 -19q-10 -20 -20 -37q-10 -14 -22.5 -24.5t-24.5 -10.5 q-20 0 -50 5.5t-61 19.5t-56.5 41t-35.5 70q-16 66 -10 158z" />
<glyph unicode="&#x44c;" horiz-adv-x="677" d="M61 750l166 45l15 -256q41 16 73.5 23t55.5 11q25 4 45 2q18 -2 50 -9t63.5 -27.5t58.5 -55.5t37 -92q12 -84 -11.5 -165t-95.5 -136q-33 -25 -76 -43q-37 -16 -88 -26.5t-112 -2.5l-9 -41l-104 -14zM242 152q29 -4 52 -1t40 7q21 6 37 12q18 8 36.5 27.5t31 45 t12.5 55.5t-21 60q-16 25 -48 32t-48 9q-14 0 -29 -2q-12 -2 -28.5 -7t-34.5 -13v-225z" />
<glyph unicode="&#x44d;" horiz-adv-x="675" d="M84 774q68 -2 129 -8q53 -4 105 -11.5t81 -19.5q35 -14 77 -39.5t78 -66.5t58.5 -99.5t20.5 -140.5q-4 -78 -27.5 -136t-60.5 -101t-83 -72t-93 -47q-113 -43 -254 -47l-25 59q39 12 78 31q35 16 73 40.5t72 59.5q27 27 50.5 53.5t39 59.5t20.5 77t-7 103 q-12 61 -62.5 95t-103.5 50q-63 20 -139 25zM143 332l17 121l243 -4l-30 -140z" />
<glyph unicode="&#x44e;" horiz-adv-x="1058" d="M33 -61q29 12 51 30q20 16 39.5 39t30.5 58q4 16 5 48.5t0 75.5t-5 93.5t-9 99.5q-10 115 -28 252l186 -4l12 -269h88q8 90 44 143.5t79 81t83 36t53 10.5q31 4 67.5 -2t72.5 -22.5t68.5 -44t57.5 -68.5t42 -111t9 -142.5t-48 -138t-128 -98.5q-72 -27 -133.5 -16.5 t-110.5 44.5t-85 83t-54 102l-96 -10q2 -10 2 -43t-8.5 -74t-30 -83t-62.5 -70q-41 -29 -70.5 -42.5t-52.5 -21.5q-25 -8 -43 -10zM549 389q0 -35 6 -74q10 -53 33.5 -82.5t48.5 -44t48.5 -16.5t33.5 0q12 2 30.5 15.5t33 39t21.5 62.5t-1 86q-10 49 -34 75.5t-50.5 40 t-49 15.5t-28.5 2t-14 -2q-12 -4 -37 -19q-25 -12 -33 -40.5t-8 -57.5z" />
<glyph unicode="&#x44f;" horiz-adv-x="845" d="M49 131q20 -8 49 -6q25 2 64 10t96 35q84 37 104.5 64.5t9 49t-41 38t-45.5 28.5q-23 14 -48.5 33.5t-44 47.5t-26.5 64.5t4 88.5q8 35 26.5 60.5t44 43t55.5 29.5t60 18q70 16 154 13l301 -37l-168 -754l-119 8l23 240q-2 -2 -12.5 -18.5t-34 -40t-58 -50t-86.5 -49.5 q-53 -23 -105 -32t-93 -11q-49 -2 -95 2zM371 524q-12 -49 17.5 -82.5t70.5 -54.5q47 -23 110 -37l31 254q-57 8 -104 4q-41 -4 -78 -21.5t-47 -62.5z" />
<glyph unicode="&#x451;" horiz-adv-x="643" d="M43 313q-8 53 0 108.5t32.5 103.5t65.5 86t97 57q59 23 122.5 11.5t114.5 -52.5q33 -27 58.5 -72t29.5 -98q6 -51 -8 -77t-25 -38q-10 -12 -55 -26.5t-104 -12.5l-17 2q-16 2 -39.5 8t-52.5 19.5t-55 36.5q-10 -16 -5 -41t9 -41q4 -14 26.5 -29.5t55.5 -26.5q27 -6 55 -6 q25 0 54.5 8.5t58.5 32.5l59 -112q-10 -8 -37.5 -28t-56.5 -28q-35 -10 -83 -14t-97 6q-25 4 -56.5 19.5t-61.5 43t-53.5 67.5t-31.5 93zM75 872.5q5 20.5 16 35t23.5 22.5t20.5 14q23 0 45 -6q18 -4 35.5 -16.5t28.5 -36.5q12 -35 2 -67t-43 -48q-14 -8 -39 -8 q-31 0 -56.5 15.5t-31.5 41.5q-6 33 -1 53.5zM244 459.5q8 -25.5 53 -39.5q39 -12 72 -13.5t49 21.5q12 23 6 46.5t-21 39.5q-20 23 -46.5 29t-45.5 4q-18 -4 -36.5 -15.5t-24.5 -21.5q-14 -25 -6 -50.5zM423 859.5q5 21.5 16.5 35.5t23.5 22.5t20 12.5q23 0 45 -6 q18 -4 36 -16.5t28 -37.5q12 -35 2 -66.5t-43 -47.5q-18 -8 -38.5 -8t-39 8t-32 20t-17.5 29q-6 33 -1 54.5z" />
<glyph unicode="&#x452;" horiz-adv-x="1024" d="M55 778q4 0 43 -1t97 -3q-4 72 -7.5 111t-5.5 59q-2 23 -4 29q37 12 48.5 12h27.5q16 -4 37.5 -11t25.5 -36v4t2.5 -12.5t5.5 -51t9 -108.5q35 -2 67.5 -2t57.5 -2q29 -2 53 -2l-25 -82l-145 -2l10 -143q86 41 127 53q25 8 45 10q41 4 78 -2t70 -31q61 -45 83.5 -126 t12.5 -156q-4 -35 -9 -66t-14.5 -62.5t-27 -70.5t-43.5 -90q-35 -59 -82 -102.5t-92 -71.5q-53 -33 -107 -55l-24 36q-10 14 -19.5 27.5t-13.5 17.5q-4 2 31.5 14.5t81 54.5t86 127t51.5 235q4 51 -14.5 79.5t-39.5 40.5q-23 12 -60.5 10.5t-100.5 -30.5l8 -369 q-35 -10 -60.5 -12t-42.5 0q-20 2 -34 6l-39 674h-140z" />
<glyph unicode="&#x453;" horiz-adv-x="708" d="M29 657q14 6 48 20.5t79 30t96 28t100 18.5q57 6 101.5 -1.5t76 -21.5t49 -32.5t21.5 -36.5q10 -51 -2 -93.5t-37.5 -78t-61.5 -66.5t-71 -59q-35 -27 -62.5 -51.5t-46.5 -51.5q-47 -66 -28 -104q16 -29 69 -35q41 -2 85 14.5t84 39t71 47t47 36.5l47 -80 q-4 -12 -22.5 -44t-61.5 -66.5t-116.5 -62t-186.5 -34.5q-63 -4 -106 13h-2q-49 16 -78 45q-27 29 -32 62.5t-3 49.5q8 41 28.5 76t48 67.5t60.5 62.5t68 59l63 53q10 8 23.5 20.5t22 29.5t9.5 35.5t-12 39.5q-12 20 -43.5 27.5t-66.5 7.5t-67 -4.5t-44 -6.5 q-12 -4 -28.5 -9t-35 -10t-35 -10.5t-26.5 -7.5zM252 895l227 293l119 -156l-289 -182z" />
<glyph unicode="&#x454;" horiz-adv-x="694" d="M86 389q-4 80 17.5 139.5t56.5 101.5t77 67.5t76 41.5q29 12 81 21.5t106 15.5q59 8 127 10l-25 -137q-76 -6 -139 -26q-53 -16 -101.5 -52t-58.5 -98q-10 -61 -4 -104t21.5 -76t40 -59.5t51.5 -51.5q35 -35 73.5 -58.5t73.5 -39.5q39 -18 78 -29l-23 -59q-143 2 -256 43 q-49 18 -95 46t-84 70t-63.5 99t-29.5 135zM313 453l275 -4l-10 -107l-230 -29z" />
<glyph unicode="&#x455;" horiz-adv-x="630" d="M51 27q98 12 178 51q20 12 29.5 26.5t12.5 28.5t1 24.5t-4 14.5q-16 37 -57 88t-80 94q-16 25 -25.5 37t-14.5 27.5t-9 37t-10 64.5q2 31 9 58.5t25 52.5t52.5 47t58.5 33q27 10 50.5 16t64.5 10q43 4 101.5 0t129.5 -26l-20 -185q-59 10 -101.5 11.5t-70.5 -2.5 q-33 -6 -56 -17q-37 -18 -44 -57t10 -68q4 -6 23.5 -41t43 -78t43 -82.5t23.5 -56.5q8 -27 10 -57.5t-4 -60t-22.5 -56.5t-43.5 -45t-62.5 -28.5t-69.5 -16.5t-59.5 -7t-33.5 -1h-43z" />
<glyph unicode="&#x456;" horiz-adv-x="464" d="M90 132.5q-8 74.5 12 184.5q8 37 18.5 74t27 77t41 84t59.5 97q31 -6 48 -12t24.5 -11t7.5 -8.5v-5.5t-10.5 -34.5t-23.5 -74.5t-26.5 -83t-19.5 -62q-16 -61 -24.5 -112t7.5 -88q8 -18 22.5 -29.5t30 -20t30 -17.5t22.5 -21q20 -23 14 -42.5t-20 -41.5q-31 -41 -51 -54 q-39 14 -64 27.5t-41 25t-27.5 22.5t-23.5 24q-25 27 -33 101.5zM272 813q0 14 2 25l2 10q16 70 36 98.5t42 50.5q12 12 35 17.5t45.5 0.5t41 -21.5t22.5 -47.5q8 -53 -4.5 -91t-32.5 -69q-10 -16 -26.5 -33.5t-38 -26.5t-47 -6t-52.5 30q-14 14 -19.5 31.5t-5.5 31.5z" />
<glyph unicode="&#x457;" horiz-adv-x="464" d="M52 856.5q5 20.5 16.5 34.5t24 22.5t20.5 14.5q23 0 45 -6q18 -4 35.5 -16.5t27.5 -37.5q12 -35 2 -66.5t-43 -47.5q-14 -8 -39 -9q-31 0 -56.5 15.5t-31.5 42.5q-6 33 -1 53.5zM90 132.5q-8 74.5 12 184.5q8 37 18.5 74t27 77t41 84t59.5 97q31 -6 48 -12t24.5 -11 t7.5 -8.5v-5.5t-10.5 -34.5t-23.5 -74.5t-26.5 -83t-19.5 -62q-16 -61 -24.5 -112t7.5 -88q8 -18 22.5 -29.5t30 -20t30 -17.5t22.5 -21q20 -23 14 -42.5t-20 -41.5q-31 -41 -51 -54q-39 14 -64 27.5t-41 25t-27.5 22.5t-23.5 24q-25 27 -33 101.5zM400.5 842.5 q5.5 21.5 16.5 36t23.5 22.5t20.5 12q23 0 45 -6q18 -4 35.5 -16t27.5 -37q12 -35 2 -66.5t-43 -48.5q-18 -8 -38.5 -8t-39 8.5t-31.5 20.5t-18 28q-6 33 -0.5 54.5z" />
<glyph unicode="&#x458;" horiz-adv-x="413" d="M-535 -362q63 16 166 39.5t209 89.5q68 41 127.5 114.5t100.5 190.5q12 37 24 97t23.5 119.5t18.5 106.5t9 58q2 10 4.5 28.5t5.5 37t7 35.5t8 26l3 4t15.5 7t36 3t64.5 -8q-27 -156 -46.5 -265.5t-33.5 -179.5l-19 -100l-16 -86q-4 -29 -17.5 -62.5t-33.5 -74.5 q-41 -84 -92 -135q-49 -55 -104.5 -86t-106.5 -43q-35 -10 -83 -17.5t-93 -10.5t-78 -2t-39 11q-23 35 -41.5 67.5t-18.5 35.5zM149.5 844q2.5 45 14.5 91t31 87q23 41 60.5 66.5t94.5 13.5q39 -6 60.5 -43t15.5 -84q-14 -104 -41 -158.5t-51 -83.5q-43 -45 -87.5 -43.5 t-64.5 17.5q-18 18 -26.5 55t-6 82z" />
<glyph unicode="&#x459;" horiz-adv-x="1159" d="M23 141q14 4 30 13q33 14 58 30q68 43 114.5 113t77.5 150.5t47.5 163.5t24.5 153l356 24l10 -253q41 16 74 22l55 10q27 4 48 2q18 0 48.5 -7t63.5 -27.5t59.5 -55.5t36.5 -92q12 -86 -11 -166t-95 -137q-35 -25 -78 -43q-37 -16 -87 -26.5t-112 -2.5l-8 -41l-129 -14 l-31 702l-71 -20q-4 -55 -12 -113q-16 -100 -52.5 -195t-93.5 -172t-135 -130.5t-178 -71.5zM743 145q29 -4 52.5 -1t40.5 8q20 6 36 12q16 8 36 27.5t32 45t12 56.5t-20 61q-16 23 -48 31t-48 8q-14 0 -29 -2q-12 -2 -28.5 -7t-35.5 -13v-226z" />
<glyph unicode="&#x45a;" horiz-adv-x="1005" d="M-57 4q31 31 55 74q23 37 42 90t23 125q2 47 3.5 119.5t3.5 144.5q2 82 2 172q18 6 40.5 10t47 3t47 -7t39.5 -18l-23 -275q35 4 79 9.5t91 9.5q2 55 2 100v78v66q16 8 39 14q20 4 52 7t79 -1l-8 -252q53 4 102.5 1t90.5 -13q33 -10 66.5 -26.5t60 -43t41 -64.5t12.5 -89 q-8 -111 -79 -175.5t-192 -72.5q-31 -2 -73.5 -1t-81.5 5q-45 2 -92 6l-13 324q-47 2 -92 1t-90 -1q-4 -31 -10 -67t-14.5 -70.5t-18.5 -64.5t-22 -50q-23 -39 -51.5 -63.5t-53.5 -31.5q-25 -4 -56.5 -3t-47.5 30zM547 106h40.5t56.5 4.5t57.5 16.5t39.5 41q18 35 13.5 68.5 t-47.5 60.5q-20 12 -63.5 17t-90.5 5z" />
<glyph unicode="&#x45b;" horiz-adv-x="1024" d="M80 768q4 -2 44 -3t97 -5q4 82 6 128t3 69.5t0 28.5l-1 5q39 8 50.5 7t27.5 -5t35.5 -14t22.5 -37v4t0 -14.5t-1.5 -57t-3.5 -120.5q29 -2 53.5 -2h43.5q23 0 41 -2l-4 -88l-138 -5l-6 -120q43 16 77 24t56 12q27 6 45 7q41 -2 77 -12.5t65 -39.5q29 -25 45 -59.5 t22 -73.5t4 -79.5t-10 -77.5t-11 -68t2 -60.5t19.5 -59.5t42.5 -64q2 -4 -7 -12.5t-21 -16.5l-35 -20q-23 12 -43 24q-16 10 -33.5 24.5t-28.5 26.5q-2 2 -12 16.5t-19.5 40t-15.5 65.5t0 95q6 49 -3 88t-66 68q-20 4 -43 6q-20 2 -48 0t-61 -12l-35 -367q-35 -6 -61.5 -5 t-42.5 5q-20 4 -33 11l39 632l-119 -2z" />
<glyph unicode="&#x45c;" horiz-adv-x="753" d="M78 698v7q78 37 103.5 44t35.5 7q18 2 35 -23q8 -23 15 -71t16 -146l186 234l98 -74l-159 -258l313 -236l-131 -104l-217 162l-58 34l-6 -229q-33 -23 -58.5 -29t-53.5 17q-29 164 -49.5 277.5t-34 188t-20.5 115.5t-11 61.5t-4 22.5zM276 893l228 293l119 -156 l-289 -182z" />
<glyph unicode="&#x45e;" horiz-adv-x="667" d="M-129 -246q-4 66 12 119q49 -39 94 -45q20 -4 30.5 -6t15 -2h8.5h12q27 0 67 14t95 57q29 23 57 56q25 29 51.5 67.5t48.5 87.5q-41 -10 -74.5 -4t-58.5 17q-29 12 -53 30q-16 14 -33.5 37t-31 49.5t-22.5 53t-9 49.5q-2 20 -4 61q-2 35 -3 94.5t-3 153.5 q39 16 68.5 23.5t55 6.5t50 -7.5t57.5 -16.5q-4 -72 -5 -118t-1 -70q0 -31 2 -43q4 -31 18.5 -68t53.5 -49q14 -6 26 -4q10 0 22.5 6t18.5 23l111 278l71 -33q-35 -129 -60.5 -212t-41.5 -130q-14 -47 -21.5 -65.5t-13.5 -34.5q-16 -39 -44.5 -104.5t-96.5 -163.5 q-47 -70 -106.5 -117t-115 -74.5t-99.5 -38t-58 -8.5t-29.5 15.5t-28 33t-21.5 42t-11 40.5zM113 901q-4 6 5 33t23 55q17 35 37 74q23 -35 53 -66q27 -27 62 -50t80 -34q43 -10 95 -5t99 14q53 8 109 24l16 -78q-53 -25 -114 -47q-53 -18 -121 -33.5t-142 -13.5 q-53 0 -87.5 11.5t-57.5 30t-36 41t-21 44.5z" />
<glyph unicode="&#x45f;" horiz-adv-x="702" d="M-31 281q-4 53 1 133t34 192l191 -26q-4 -16 -9.5 -69.5t-4.5 -115t16.5 -118t52.5 -78.5q20 -12 38.5 -13.5t34 3t25.5 11.5t17 11q10 8 14 34.5t4 62.5t-2 77t-6 79t-7 67.5t-6 41.5l162 15q-4 -66 0 -118t11 -87q8 -41 18 -72q8 -37 25 -80q14 -37 38.5 -86t65.5 -106 q-10 -10 -23.5 -17.5t-25.5 -13.5q-14 -8 -29 -12q-16 -4 -35.5 -3t-40 7t-39 15.5t-28.5 21.5q-10 10 -18.5 23.5t-14.5 25.5t-9 22.5t-3 12.5q-33 -59 -79 -83t-87 -28q-49 -6 -100 6q-51 16 -93.5 58.5t-64.5 103.5q-16 41 -23 103zM106 -240q18 12 37 29 q16 14 31.5 30.5t26.5 35.5q10 16 13 33.5t3 31.5q0 16 -2 29l168 31q-2 -29 -10 -58q-6 -25 -18.5 -54.5t-35.5 -53.5q-23 -27 -50 -45.5t-56 -30.5q-33 -14 -66 -25z" />
<glyph unicode="&#x490;" horiz-adv-x="610" d="M76 1018q84 23 157.5 31t108.5 8q29 4 62.5 4t101.5 -8h4l35 172q41 4 60.5 2t41.5 -13l-4 -176q0 -37 -2 -56t-4 -28.5t-4 -11.5t-4 -2t-20.5 -3t-45 -7t-56.5 -8t-54 -7q-66 -6 -114 -10t-103 -4q10 -63 19 -122.5t15 -104.5l13 -74q4 -27 15 -100.5t19 -161.5 q10 -86 12.5 -132t-1.5 -61q2 -6 0 -15t-12.5 -17.5t-30 -15.5t-54.5 -9q-41 0 -66.5 18.5t-25.5 24.5q-2 31 -7 103.5t-12 165t-15.5 193.5t-14.5 189t-10 152.5t-4 83.5z" />
<glyph unicode="&#x491;" horiz-adv-x="657" d="M39 12q2 29 3 88.5t2 131t2 149.5t2 145.5t2 118.5t1 70q59 6 113.5 7t95.5 1q49 -2 92 -4q14 -2 37 -4q18 -4 44 -7t61 -10h4l45 170q41 2 59.5 -1t40.5 -15l-12 -182q-8 -68 -15 -82q-4 -10 -8 -10t-23.5 -1.5t-46 -1.5t-57 -1t-57.5 -1q-66 2 -116 4.5t-105 8.5 q4 -61 8 -106.5t8 -73.5q4 -35 8 -58q8 -143 10.5 -216t0.5 -103q-2 -37 -9 -35q-4 -16 -31.5 -26.5t-68.5 -6.5q-43 4 -66.5 24.5t-23.5 26.5z" />
<glyph unicode="&#x4d9;" horiz-adv-x="643" d="M39 207q-6 51 8 76.5t25 38.5q10 12 55 26t104 12l17 -2q16 -2 39.5 -8t52.5 -19.5t55 -35.5q10 16 5 40.5t-9 41.5q-4 14 -26.5 29.5t-55.5 25.5q-27 6 -55 6q-25 0 -54.5 -9t-58.5 -32l-59 113q10 8 37.5 27.5t56.5 27.5q35 10 83 14.5t97 -6.5q25 -4 56.5 -19 t61.5 -43t53.5 -68t31.5 -93t0 -108.5t-32.5 -103.5t-65.5 -86t-96 -56q-59 -23 -123 -11.5t-115 52.5q-33 27 -58.5 72t-29.5 98zM178 189.5q6 -23.5 21 -39.5q20 -23 46.5 -29t45.5 -4q18 4 36.5 15t24.5 22q14 25 6 50t-53 40q-39 12 -72 13.5t-49 -21.5 q-12 -23 -6 -46.5z" />
<glyph unicode="&#x2000;" horiz-adv-x="745" />
<glyph unicode="&#x2001;" horiz-adv-x="1491" />
<glyph unicode="&#x2002;" horiz-adv-x="745" />
<glyph unicode="&#x2003;" horiz-adv-x="1491" />
<glyph unicode="&#x2004;" horiz-adv-x="497" />
<glyph unicode="&#x2005;" horiz-adv-x="372" />
<glyph unicode="&#x2006;" horiz-adv-x="248" />
<glyph unicode="&#x2007;" horiz-adv-x="248" />
<glyph unicode="&#x2008;" horiz-adv-x="186" />
<glyph unicode="&#x2009;" horiz-adv-x="298" />
<glyph unicode="&#x200a;" horiz-adv-x="82" />
<glyph unicode="&#x2010;" d="M94 487v78l512 27l4 -129q-57 -2 -129.5 -1t-144.5 5t-136.5 9t-105.5 11z" />
<glyph unicode="&#x2011;" d="M94 487v78l512 27l4 -129q-57 -2 -129.5 -1t-144.5 5t-136.5 9t-105.5 11z" />
<glyph unicode="&#x2012;" d="M94 487v78l512 27l4 -129q-57 -2 -129.5 -1t-144.5 5t-136.5 9t-105.5 11z" />
<glyph unicode="&#x2013;" horiz-adv-x="991" d="M123 391v70l729 49v-156z" />
<glyph unicode="&#x2014;" horiz-adv-x="1785" d="M127 391v70l1548 59q0 -6 1 -23.5t1 -41.5v-47v-23.5t-2 -22.5z" />
<glyph unicode="&#x2018;" horiz-adv-x="303" d="M27 983q-6 16 12 31.5t44 25t50.5 8t30.5 -19.5q16 -53 33.5 -122.5t33.5 -127.5l-59 -65q-6 12 -28.5 52t-47 86t-45 85t-24.5 47z" />
<glyph unicode="&#x2019;" horiz-adv-x="303" d="M76 778q14 57 32.5 127t34.5 123q6 18 31 19.5t50.5 -8t44 -25t12.5 -31.5q-4 -8 -24.5 -47t-45.5 -85t-47.5 -86t-28.5 -52z" />
<glyph unicode="&#x201a;" horiz-adv-x="278" d="M45 33.5q-4 25.5 0 42.5q18 59 94 59q29 0 49.5 -20.5t20.5 -67.5q0 -27 -16 -70l-64 -118q-43 -8 -56.5 4t-12.5 32.5t9.5 44t8.5 35.5q-29 33 -33 58.5z" />
<glyph unicode="&#x201c;" horiz-adv-x="532" d="M76 983q-6 16 12 31.5t44 25t50.5 8t30.5 -19.5q16 -53 33.5 -122.5t34.5 -127.5l-60 -65q-6 12 -28.5 52t-47 86t-45 85t-24.5 47zM264 983q-6 16 12.5 31.5t44 25t50 8t30.5 -19.5q16 -53 34 -122.5t34 -127.5l-59 -65q-6 12 -29 52t-47.5 86t-45 85t-24.5 47z" />
<glyph unicode="&#x201d;" horiz-adv-x="532" d="M76 778q14 57 32.5 127t34.5 123q6 18 31 19.5t50.5 -8t44 -25t12.5 -31.5q-4 -8 -24.5 -47t-45.5 -85t-47.5 -86t-28.5 -52zM264 778q14 57 33 127t35 123q6 18 30.5 19.5t50 -8t44 -25t12.5 -31.5q-4 -8 -24.5 -47t-45 -85t-47 -86t-28.5 -52z" />
<glyph unicode="&#x201e;" horiz-adv-x="503" d="M45 33.5q-4 25.5 0 42.5q18 59 94 59q29 0 49.5 -20.5t20.5 -67.5q0 -27 -16 -70l-64 -118q-43 -8 -56.5 4t-12.5 32.5t9.5 44t8.5 35.5q-29 33 -33 58.5zM270 33.5q-4 25.5 0 42.5q18 59 95 59q29 0 49 -20.5t20 -67.5q0 -27 -16 -70l-64 -118q-43 -8 -56 4t-12 32.5 t9 44t8 35.5q-29 33 -33 58.5z" />
<glyph unicode="&#x2026;" horiz-adv-x="940" d="M72 106q0 33 26.5 56.5t65.5 23.5t65.5 -23.5t26.5 -56.5t-26.5 -56t-65.5 -23t-65.5 23.5t-26.5 55.5zM387 106q0 33 26.5 56.5t65.5 23.5t65.5 -23.5t26.5 -56.5t-26.5 -56t-65.5 -23t-65.5 23.5t-26.5 55.5zM702 106q0 33 27 56.5t66 23.5t65.5 -23.5t26.5 -56.5 t-26.5 -56t-65.5 -23t-66 23.5t-27 55.5z" />
<glyph unicode="&#x202f;" horiz-adv-x="298" />
<glyph unicode="&#x2039;" horiz-adv-x="612" d="M186 461q18 31 48 70.5t64 81.5t68.5 84t63.5 77l55 -80q-41 -51 -94 -117.5t-133 -125.5q18 -18 49 -48t67 -63t69.5 -66.5t58.5 -60.5l-8 -17q-7 -16 -19 -31t-26.5 -22.5t-26.5 7.5q-23 27 -54.5 63.5t-63.5 78.5t-63.5 85t-54.5 84z" />
<glyph unicode="&#x203a;" horiz-adv-x="614" d="M186 213q25 27 59 60.5t69.5 66.5t66.5 62.5t49 48.5q-78 59 -131 125.5t-94 117.5l55 80q29 -35 63.5 -77t68.5 -84t63.5 -81.5t48.5 -70.5q-25 -39 -56.5 -83t-63.5 -85t-62.5 -79t-53.5 -64q-14 -16 -27.5 -8t-25.5 24q-14 18 -29 47z" />
<glyph unicode="&#x205f;" horiz-adv-x="372" />
<glyph unicode="&#x20ac;" horiz-adv-x="813" d="M31 512l14 109l94 -5q45 0 54 46q6 23 20 51t34.5 57t46 56.5t50.5 45.5q51 37 106.5 52.5t106.5 17.5t95 -5t71 -15q41 -12 41 -15v-4q0 -8 2 -14q4 -16 6 -42t-2 -42q-6 -31 -16.5 -47.5t-36.5 -44.5q-61 31 -117.5 29.5t-102.5 -19.5t-79 -47t-49 -55l-7 -9 q35 0 75 -1t74 -1t55 -1l22 -1q2 -12 2 -34.5t2 -55.5l-260 -2q-2 -10 -2 -29v-28l254 6l-19 -92l-211 -15q0 -6 4 -10q14 -25 35 -48.5t47.5 -39.5t59 -22.5t73.5 4.5q10 0 19.5 3t19.5 7t21 8l84 -147q-41 -29 -94.5 -46.5t-114.5 -13.5q-41 4 -104.5 26.5t-114.5 74.5 q-41 41 -63.5 90t-37.5 98l-16 -2q-35 -6 -57.5 -5t-34.5 4t-18 7l-5 4q-18 45 -18 103l131 2q-2 10 -2 17v15v25h-137z" />
<glyph unicode="&#x2122;" horiz-adv-x="1101" d="M61 983q-4 35 11 74l34 1q33 1 82.5 2t105.5 1t103 -2t75 -7.5t22 -13.5q10 0 11 -11t-1 -25.5t-6 -26.5t-4 -14q-61 -6 -140 -19l-43 -444l-82 -17l4 455q-4 0 -27.5 -2t-55.5 -2q-16 0 -27.5 1t-20.5 3q-14 0 -25 13.5t-16 33.5zM518 514l17 524q39 6 65 -2 q10 -4 40 -32.5t46 -51.5q12 -14 28.5 -34.5t26.5 -34.5q10 -12 11.5 -13.5t7.5 9.5q8 12 16 22t21 29q23 29 46 62.5t46 45.5q31 16 86 23l35 -545q0 -2 -21.5 -21.5t-85.5 -19.5q-4 12 -7 70.5t-6 123t-6 116t-5 49.5q-4 -2 -22.5 -24t-40 -45.5t-40 -43t-24.5 -16.5 q-6 2 -17.5 18t-24 36.5t-24.5 40t-18 27.5q-4 8 -14.5 23.5t-14.5 13.5q-6 -4 -10 -39q-4 -6 -9.5 -58t-11.5 -112.5t-13 -109.5t-13 -49t-16.5 2t-20.5 6q-12 4 -27 10z" />
<glyph unicode="&#x25fc;" horiz-adv-x="706" d="M0 0v707h707v-707h-707z" />
</font>
</defs>
</svg>
